<svg version="1.1" 
  xmlns="http://www.w3.org/2000/svg"
  xmlns:xlink="http://www.w3.org/1999/xlink"
  xml:space="preserve"
  fill="none"
  style="enable-background:new 0 0 640 124;"
  x="0px" y="0px" viewBox="0 0 620 124">
  <style type="text/css">
      <![CDATA[
      @import url("https://fonts.googleapis.com/css2?family=Inter:wght@400;700&display=block");
      .backgroundColor {fill :#26272D;}
      ]]>
  </style>
  <g id="trophySet0">
  <svg x="0" y="0" width="124" height="124" viewBox="0 0 124 124" fill="none" xmlns="http://www.w3.org/2000/svg">
  <rect x="2" y="2" width="120" height="120" rx="4" class="backgroundColor"/>
<defs>
<linearGradient id="innerLineColorB00" x1="4" y1="4" x2="122.5" y2="6.5" gradientUnits="userSpaceOnUse">
  <stop offset="0" stop-color="#FFE713" stop-opacity="1"/>
  <stop offset="0.5" stop-color="#F29F23" stop-opacity="1"/>
  <stop offset="1" stop-color="#FF7A00" stop-opacity="1"/>
</linearGradient>
<linearGradient id="barColorGradientB00" x1="12" y1="110" x2="112" y2="110" gradientUnits="userSpaceOnUse">
  <stop offset="0" stop-color="#FFE713" stop-opacity="1"/>
  <stop offset="0.5" stop-color="#F29F23" stop-opacity="1"/>
  <stop offset="1" stop-color="#FF7A00" stop-opacity="1"/>
</linearGradient>
<mask id="barClipPathB-00" style="mask-type:alpha" maskUnits="userSpaceOnUse" x="12" y="110" width="100" height="2">
  <rect id="barClipPathShapeB-00" x="12" y="110" width="0" height="2" rx="1" fill="white"/>
</mask>
  <animate begin="0.00s" xlink:href="#trophySVGBase00" attributeName="opacity" attributeType="XML" dur="0.3s" fill="freeze" from="0.5" to="0"/>
  <animate begin="0.50s" xlink:href="#badgeSubtitleGroup00" attributeName="opacity" attributeType="XML" dur="0.2s" fill="freeze" from="0" to="1"/>
</defs>
      <g id="baseGroup00">
          <!-- Background Inner Line Base -->
          <g id="backgroundInnerLineBase00">
              <rect opacity="0.5" x="4.25" y="4.25" width="115.5" height="115.5" rx="3.75" stroke="#8D8D8D" stroke-width="0.3"/>
          </g>
          <!-- Trophy Base -->
          <g id="trophySVGBase00" opacity="0.5">
              <svg x="42" y="21" width="39" height="45" viewBox="0 0 39 45" fill="none" xmlns="http://www.w3.org/2000/svg">
                  <path d="M36.9517 8.40472H33.3544L34.2193 4.13527H35.5091C36.6522 4.13527 37.5813 3.20819 37.5813 2.06763C37.5813 0.927081 36.6522 0 35.5091 0H4.1999C3.05377 0 2.1277 0.927081 2.1277 2.06763C2.1277 3.20819 3.05683 4.13527 4.1999 4.13527H5.48968L6.35462 8.40472H3.04155C1.75177 8.40472 0.782906 9.58491 1.03964 10.8475L1.10077 11.1494L3.20048 21.518L3.42664 22.6281C3.61919 23.5796 4.45663 24.2627 5.42855 24.2627H9.56379L10.2423 27.6203C10.8536 30.6364 13.5095 32.8016 16.5903 32.8016H17.0977V39.8157H12.2075C10.7741 39.8157 9.60963 40.9776 9.60963 42.4078C9.60963 43.8381 10.7741 45 12.2075 45H27.4893C28.9227 45 30.0871 43.8381 30.0871 42.4078C30.0871 40.9776 28.9227 39.8157 27.4893 39.8157H22.5991V32.8016H23.1065C26.1903 32.8016 28.8432 30.6333 29.4545 27.6203L30.133 24.2627H34.5555C35.5274 24.2627 36.3649 23.5796 36.5574 22.6281L36.7836 21.518L38.8833 11.1494L38.9444 10.8475C39.2012 9.58491 38.2323 8.40472 36.9425 8.40472H36.9517ZM7.29903 21.3655C6.77029 21.3655 6.31183 20.9935 6.20792 20.4751L4.56055 12.9303C4.45358 12.4028 4.85701 11.9118 5.39493 11.9118H7.0637L8.98002 21.3655H7.29903ZM35.1301 12.9303L33.4827 20.4751C33.3788 20.9935 32.9204 21.3655 32.3916 21.3655H30.732L32.6484 11.9118H34.2988C34.8367 11.9118 35.2401 12.4028 35.1332 12.9303H35.1301Z" fill="url(#paint0_linear_739_1567)"/>
                  <path d="M22.6062 32.8015H17.1039V39.8156H22.6062V32.8015Z" fill="url(#paint1_linear_739_1567)"/>
                  <path d="M27.4955 39.8157H12.2137C10.779 39.8157 9.61584 40.9762 9.61584 42.4078C9.61584 43.8395 10.779 45 12.2137 45H27.4955C28.9302 45 30.0934 43.8395 30.0934 42.4078C30.0934 40.9762 28.9302 39.8157 27.4955 39.8157Z" fill="url(#paint2_linear_739_1567)"/>
                  <path d="M35.5094 0H4.20019C3.05575 0 2.12799 0.925711 2.12799 2.06763C2.12799 3.20956 3.05575 4.13527 4.20019 4.13527H35.5094C36.6538 4.13527 37.5816 3.20956 37.5816 2.06763C37.5816 0.925711 36.6538 0 35.5094 0Z" fill="url(#paint3_linear_739_1567)"/>
                  <path d="M23.1126 32.8016H16.5965C13.5127 32.8016 10.8598 30.6333 10.2485 27.6203L5.48976 4.13525H34.2194L29.4607 27.6203C28.8494 30.6363 26.1934 32.8016 23.1126 32.8016V32.8016Z" fill="url(#paint4_linear_739_1567)"/>
                  <path d="M7.29913 21.3656C6.77038 21.3656 6.31193 20.9936 6.20801 20.4751L4.56064 12.9304C4.45367 12.4028 4.85711 11.9118 5.39502 11.9118H7.06379L6.35471 8.40479H3.04164C1.75186 8.40479 0.782998 9.58498 1.03973 10.8475L1.10086 11.1494L3.20057 21.5181L3.42674 22.6282C3.61929 23.5796 4.45672 24.2627 5.42864 24.2627H9.56388L8.97706 21.3656H7.29607H7.29913Z" fill="url(#paint5_linear_739_1567)"/>
                  <path d="M36.9518 8.40479H33.3545L32.6454 11.9118H34.2958C34.8337 11.9118 35.2372 12.4028 35.1302 12.9304L33.4828 20.4751C33.3789 20.9936 32.9205 21.3656 32.3917 21.3656H30.7321L30.1453 24.2627H34.5678C35.5398 24.2627 36.3772 23.5796 36.5697 22.6282L36.7959 21.5181L38.8956 11.1494L38.9568 10.8475C39.2135 9.58498 38.2446 8.40479 36.9548 8.40479H36.9518Z" fill="url(#paint6_linear_739_1567)"/>
                  <g style="mix-blend-mode:hard-light" opacity="0.3" clip-path="url(#clip0_739_1567)">
                  <path d="M36.9517 8.40472H33.3544L34.2193 4.13527H35.5091C36.6522 4.13527 37.5813 3.20819 37.5813 2.06763C37.5813 0.927081 36.6522 0 35.5091 0H4.1999C3.05377 0 2.1277 0.927081 2.1277 2.06763C2.1277 3.20819 3.05683 4.13527 4.1999 4.13527H5.48968L6.35462 8.40472H3.04154C1.75177 8.40472 0.782906 9.58491 1.03964 10.8475L1.10077 11.1494L3.20047 21.518L3.42664 22.6281C3.61919 23.5796 4.45663 24.2627 5.42855 24.2627H9.56379L10.2423 27.6203C10.8536 30.6364 13.5095 32.8016 16.5903 32.8016H17.0977V39.8157H12.2075C10.7741 39.8157 9.60963 40.9776 9.60963 42.4078C9.60963 43.8381 10.7741 45 12.2075 45H27.4892C28.9227 45 30.0871 43.8381 30.0871 42.4078C30.0871 40.9776 28.9227 39.8157 27.4892 39.8157H22.5991V32.8016H23.1065C26.1903 32.8016 28.8432 30.6333 29.4545 27.6203L30.133 24.2627H34.5555C35.5274 24.2627 36.3649 23.5796 36.5574 22.6281L36.7836 21.518L38.8833 11.1494L38.9444 10.8475C39.2012 9.58491 38.2323 8.40472 36.9425 8.40472H36.9517ZM7.29903 21.3655C6.77029 21.3655 6.31183 20.9935 6.20792 20.4751L4.56055 12.9303C4.45358 12.4028 4.85701 11.9118 5.39493 11.9118H7.06369L8.98002 21.3655H7.29903ZM35.1301 12.9303L33.4827 20.4751C33.3788 20.9935 32.9204 21.3655 32.3916 21.3655H30.732L32.6484 11.9118H34.2988C34.8367 11.9118 35.2401 12.4028 35.1332 12.9303H35.1301Z" fill="black" fill-opacity="0.3"/>
                  <path d="M22.6063 32.8015H17.1039V39.8156H22.6063V32.8015Z" fill="url(#paint7_linear_739_1567)" fill-opacity="0.6"/>
                  <path d="M27.4954 39.8157H12.2137C10.7789 39.8157 9.61583 40.9762 9.61583 42.4078C9.61583 43.8395 10.7789 45 12.2137 45H27.4954C28.9302 45 30.0933 43.8395 30.0933 42.4078C30.0933 40.9762 28.9302 39.8157 27.4954 39.8157Z" fill="url(#paint8_linear_739_1567)" fill-opacity="0.5"/>
                  <path d="M35.5094 0H4.20019C3.05575 0 2.12799 0.925711 2.12799 2.06763C2.12799 3.20956 3.05575 4.13527 4.20019 4.13527H35.5094C36.6538 4.13527 37.5816 3.20956 37.5816 2.06763C37.5816 0.925711 36.6538 0 35.5094 0Z" fill="url(#paint9_linear_739_1567)" fill-opacity="0.7"/>
                  <path d="M23.1127 32.8016H16.5965C13.5127 32.8016 10.8598 30.6333 10.2485 27.6203L5.48978 4.13525H34.2194L29.4607 27.6203C28.8494 30.6363 26.1935 32.8016 23.1127 32.8016V32.8016Z" fill="url(#paint10_linear_739_1567)" fill-opacity="0.5"/>
                  <path d="M7.29912 21.3655C6.77038 21.3655 6.31193 20.9934 6.20801 20.475L4.56064 12.9303C4.45367 12.4027 4.8571 11.9117 5.39502 11.9117H7.06379L6.35471 8.40466H3.04164C1.75186 8.40466 0.782998 9.58486 1.03973 10.8474L1.10086 11.1493L3.20057 21.518L3.42674 22.628C3.61929 23.5795 4.45672 24.2626 5.42864 24.2626H9.56388L8.97706 21.3655H7.29607H7.29912Z" fill="url(#paint11_linear_739_1567)" fill-opacity="0.3"/>
                  <path d="M36.9518 8.40466H33.3545L32.6454 11.9117H34.2958C34.8337 11.9117 35.2372 12.4027 35.1302 12.9303L33.4828 20.475C33.3789 20.9934 32.9205 21.3655 32.3917 21.3655H30.7321L30.1453 24.2626H34.5678C35.5398 24.2626 36.3772 23.5795 36.5697 22.628L36.7959 21.518L38.8956 11.1493L38.9568 10.8474C39.2135 9.58486 38.2446 8.40466 36.9548 8.40466H36.9518Z" fill="url(#paint12_linear_739_1567)" fill-opacity="0.3"/>
                  </g>
                  <g opacity="0.1" clip-path="url(#clip1_739_1567)">
                  <path d="M36.9517 8.40472H33.3544L34.2193 4.13527H35.5091C36.6522 4.13527 37.5813 3.20819 37.5813 2.06763C37.5813 0.927081 36.6522 0 35.5091 0H4.1999C3.05377 0 2.1277 0.927081 2.1277 2.06763C2.1277 3.20819 3.05683 4.13527 4.1999 4.13527H5.48968L6.35462 8.40472H3.04154C1.75177 8.40472 0.782906 9.58491 1.03964 10.8475L1.10077 11.1494L3.20047 21.518L3.42664 22.6281C3.61919 23.5796 4.45663 24.2627 5.42855 24.2627H9.56379L10.2423 27.6203C10.8536 30.6364 13.5095 32.8016 16.5903 32.8016H17.0977V39.8157H12.2075C10.7741 39.8157 9.60963 40.9776 9.60963 42.4078C9.60963 43.8381 10.7741 45 12.2075 45H27.4892C28.9227 45 30.0871 43.8381 30.0871 42.4078C30.0871 40.9776 28.9227 39.8157 27.4892 39.8157H22.5991V32.8016H23.1065C26.1903 32.8016 28.8432 30.6333 29.4545 27.6203L30.133 24.2627H34.5555C35.5274 24.2627 36.3649 23.5796 36.5574 22.6281L36.7836 21.518L38.8833 11.1494L38.9444 10.8475C39.2012 9.58491 38.2323 8.40472 36.9425 8.40472H36.9517ZM7.29903 21.3655C6.77029 21.3655 6.31183 20.9935 6.20792 20.4751L4.56055 12.9303C4.45358 12.4028 4.85701 11.9118 5.39493 11.9118H7.06369L8.98002 21.3655H7.29903ZM35.1301 12.9303L33.4827 20.4751C33.3788 20.9935 32.9204 21.3655 32.3916 21.3655H30.732L32.6484 11.9118H34.2988C34.8367 11.9118 35.2401 12.4028 35.1332 12.9303H35.1301Z" fill="white"/>
                  <path d="M22.6063 32.8015H17.1039V39.8156H22.6063V32.8015Z" fill="white"/>
                  <path d="M27.4954 39.8157H12.2137C10.7789 39.8157 9.61583 40.9762 9.61583 42.4078C9.61583 43.8395 10.7789 45 12.2137 45H27.4954C28.9302 45 30.0933 43.8395 30.0933 42.4078C30.0933 40.9762 28.9302 39.8157 27.4954 39.8157Z" fill="white"/>
                  <path d="M35.5094 0H4.20019C3.05575 0 2.12799 0.925711 2.12799 2.06763C2.12799 3.20956 3.05575 4.13527 4.20019 4.13527H35.5094C36.6538 4.13527 37.5816 3.20956 37.5816 2.06763C37.5816 0.925711 36.6538 0 35.5094 0Z" fill="white"/>
                  <path d="M23.1127 32.8016H16.5965C13.5127 32.8016 10.8598 30.6333 10.2485 27.6203L5.48978 4.13525H34.2194L29.4607 27.6203C28.8494 30.6363 26.1935 32.8016 23.1127 32.8016V32.8016Z" fill="white"/>
                  <path d="M7.29912 21.3655C6.77038 21.3655 6.31193 20.9934 6.20801 20.475L4.56064 12.9303C4.45367 12.4027 4.8571 11.9117 5.39502 11.9117H7.06379L6.35471 8.40466H3.04164C1.75186 8.40466 0.782998 9.58486 1.03973 10.8474L1.10086 11.1493L3.20057 21.518L3.42674 22.628C3.61929 23.5795 4.45672 24.2626 5.42864 24.2626H9.56388L8.97706 21.3655H7.29607H7.29912Z" fill="white"/>
                  <path d="M36.9518 8.40466H33.3545L32.6454 11.9117H34.2958C34.8337 11.9117 35.2372 12.4027 35.1302 12.9303L33.4828 20.475C33.3789 20.9934 32.9205 21.3655 32.3917 21.3655H30.7321L30.1453 24.2626H34.5678C35.5398 24.2626 36.3772 23.5795 36.5697 22.628L36.7959 21.518L38.8956 11.1493L38.9568 10.8474C39.2135 9.58486 38.2446 8.40466 36.9548 8.40466H36.9518Z" fill="white"/>
                  </g>
                  <defs>
                  <linearGradient id="paint0_linear_739_1567" x1="0.998199" y1="22.9787" x2="38.9859" y2="22.9787" gradientUnits="userSpaceOnUse">
                  <stop stop-color="#CFCFCF" stop-opacity="0.5"/>
                  <stop offset="0.510417" stop-color="#8F8F8F" stop-opacity="0.3"/>
                  <stop offset="1" stop-opacity="0.5"/>
                  </linearGradient>
                  <linearGradient id="paint1_linear_739_1567" x1="17.1039" y1="36.3832" x2="22.6062" y2="36.3832" gradientUnits="userSpaceOnUse">
                  <stop stop-color="#CFCFCF" stop-opacity="0.5"/>
                  <stop offset="0.510417" stop-color="#8F8F8F" stop-opacity="0.3"/>
                  <stop offset="1" stop-opacity="0.5"/>
                  </linearGradient>
                  <linearGradient id="paint2_linear_739_1567" x1="9.61584" y1="42.463" x2="30.0934" y2="42.463" gradientUnits="userSpaceOnUse">
                  <stop stop-color="#CFCFCF" stop-opacity="0.5"/>
                  <stop offset="0.510417" stop-color="#8F8F8F" stop-opacity="0.3"/>
                  <stop offset="1" stop-opacity="0.5"/>
                  </linearGradient>
                  <linearGradient id="paint3_linear_739_1567" x1="2.12799" y1="2.11163" x2="37.5816" y2="2.11163" gradientUnits="userSpaceOnUse">
                  <stop stop-color="#CFCFCF" stop-opacity="0.5"/>
                  <stop offset="0.510417" stop-color="#8F8F8F" stop-opacity="0.3"/>
                  <stop offset="1" stop-opacity="0.5"/>
                  </linearGradient>
                  <linearGradient id="paint4_linear_739_1567" x1="5.48976" y1="18.7734" x2="34.2194" y2="18.7734" gradientUnits="userSpaceOnUse">
                  <stop stop-color="#CFCFCF" stop-opacity="0.5"/>
                  <stop offset="0.510417" stop-color="#8F8F8F" stop-opacity="0.3"/>
                  <stop offset="1" stop-opacity="0.5"/>
                  </linearGradient>
                  <linearGradient id="paint5_linear_739_1567" x1="0.998291" y1="16.5025" x2="9.56388" y2="16.5025" gradientUnits="userSpaceOnUse">
                  <stop stop-color="#CFCFCF" stop-opacity="0.5"/>
                  <stop offset="0.510417" stop-color="#8F8F8F" stop-opacity="0.3"/>
                  <stop offset="1" stop-opacity="0.5"/>
                  </linearGradient>
                  <linearGradient id="paint6_linear_739_1567" x1="30.1453" y1="16.5025" x2="38.9982" y2="16.5025" gradientUnits="userSpaceOnUse">
                  <stop stop-color="#CFCFCF" stop-opacity="0.5"/>
                  <stop offset="0.510417" stop-color="#8F8F8F" stop-opacity="0.3"/>
                  <stop offset="1" stop-opacity="0.5"/>
                  </linearGradient>
                  <linearGradient id="paint7_linear_739_1567" x1="19.8551" y1="32.8015" x2="19.8551" y2="39.8156" gradientUnits="userSpaceOnUse">
                  <stop stop-color="white"/>
                  <stop offset="1" stop-color="white" stop-opacity="0"/>
                  </linearGradient>
                  <linearGradient id="paint8_linear_739_1567" x1="19.8546" y1="39.8157" x2="19.8546" y2="45" gradientUnits="userSpaceOnUse">
                  <stop stop-color="white"/>
                  <stop offset="1" stop-color="white" stop-opacity="0"/>
                  </linearGradient>
                  <linearGradient id="paint9_linear_739_1567" x1="19.8548" y1="0" x2="19.8548" y2="4.13527" gradientUnits="userSpaceOnUse">
                  <stop stop-color="white"/>
                  <stop offset="1" stop-color="white" stop-opacity="0"/>
                  </linearGradient>
                  <linearGradient id="paint10_linear_739_1567" x1="19.8546" y1="4.13525" x2="19.8546" y2="32.8016" gradientUnits="userSpaceOnUse">
                  <stop stop-color="white"/>
                  <stop offset="1" stop-color="white" stop-opacity="0"/>
                  </linearGradient>
                  <linearGradient id="paint11_linear_739_1567" x1="7.99879" y1="15.9999" x2="1.99977" y2="16.9995" gradientUnits="userSpaceOnUse">
                  <stop stop-color="white"/>
                  <stop offset="1" stop-color="white" stop-opacity="0"/>
                  </linearGradient>
                  <linearGradient id="paint12_linear_739_1567" x1="31.9946" y1="16.4999" x2="37.4937" y2="17.4995" gradientUnits="userSpaceOnUse">
                  <stop stop-color="white"/>
                  <stop offset="1" stop-color="white" stop-opacity="0"/>
                  </linearGradient>
                  <clipPath id="clip0_739_1567">
                  <rect width="37.9934" height="45" fill="white" transform="translate(1)"/>
                  </clipPath>
                  <clipPath id="clip1_739_1567">
                  <rect width="37.9934" height="45" fill="white" transform="translate(1)"/>
                  </clipPath>
                  </defs>
              </svg>
          </g>
          <!-- Bar Background Base -->
          <g id="barBackgroundBase00">
              <rect x="12" y="110" width="100" height="2" rx="1" fill="#8D8D8D" fill-opacity="0.3"/>
          </g>
      </g>
      <g id="activeGroup00">
<g id="backgroundInnerLineActiveB-00" opacity="0">
<rect x="4.25" y="4.25" width="115.5" height="115.5" rx="3.75" stroke="url(#innerLineColorB00)" stroke-width="0.5"/>
<rect x="4.25" y="4.25" width="115.5" height="115.5" rx="3.75" stroke="#FFFFFF" stroke-opacity="0.1" stroke-width="0.5"/>
</g>
<g id="trophySVGB-00" opacity="0">
  <svg x="30" y="10" width="64" height="64" viewBox="0 0 64 64" fill="none" xmlns="http://www.w3.org/2000/svg">
      <path d="M48.9579 19.4047H45.36L46.2251 15.1353H47.5151C48.6583 15.1353 49.5876 14.2082 49.5876 13.0676C49.5876 11.9271 48.6583 11 47.5151 11H16.2005C15.0541 11 14.1279 11.9271 14.1279 13.0676C14.1279 14.2082 15.0572 15.1353 16.2005 15.1353H17.4905L18.3555 19.4047H15.0419C13.7519 19.4047 12.7829 20.5849 13.0396 21.8475L13.1008 22.1494L15.2009 32.518L15.4271 33.6281C15.6196 34.5796 16.4572 35.2627 17.4293 35.2627H21.5653L22.2439 38.6203C22.8553 41.6364 25.5117 43.8016 28.593 43.8016H29.1005V50.8157H24.2095C22.7758 50.8157 21.6111 51.9776 21.6111 53.4078C21.6111 54.8381 22.7758 56 24.2095 56H39.4938C40.9275 56 42.0922 54.8381 42.0922 53.4078C42.0922 51.9776 40.9275 50.8157 39.4938 50.8157H34.6028V43.8016H35.1103C38.1947 43.8016 40.848 41.6333 41.4594 38.6203L42.138 35.2627H46.5613C47.5334 35.2627 48.371 34.5796 48.5636 33.6281L48.7898 32.518L50.8899 22.1494L50.951 21.8475C51.2078 20.5849 50.2387 19.4047 48.9487 19.4047H48.9579ZM19.3001 32.3655C18.7713 32.3655 18.3128 31.9935 18.2088 31.4751L16.5612 23.9303C16.4542 23.4028 16.8577 22.9118 17.3957 22.9118H19.0647L20.9814 32.3655H19.3001ZM47.136 23.9303L45.4884 31.4751C45.3844 31.9935 44.9259 32.3655 44.3971 32.3655H42.7372L44.6538 22.9118H46.3045C46.8426 22.9118 47.2461 23.4028 47.1391 23.9303H47.136Z" fill="url(#paint0_linear_739_2563)"/>
      <path d="M48.9579 19.4047H45.36L46.2251 15.1353H47.5151C48.6583 15.1353 49.5876 14.2082 49.5876 13.0676C49.5876 11.9271 48.6583 11 47.5151 11H16.2005C15.0541 11 14.1279 11.9271 14.1279 13.0676C14.1279 14.2082 15.0572 15.1353 16.2005 15.1353H17.4905L18.3555 19.4047H15.0419C13.7519 19.4047 12.7829 20.5849 13.0396 21.8475L13.1008 22.1494L15.2009 32.518L15.4271 33.6281C15.6196 34.5796 16.4572 35.2627 17.4293 35.2627H21.5653L22.2439 38.6203C22.8553 41.6364 25.5117 43.8016 28.593 43.8016H29.1005V50.8157H24.2095C22.7758 50.8157 21.6111 51.9776 21.6111 53.4078C21.6111 54.8381 22.7758 56 24.2095 56H39.4938C40.9275 56 42.0922 54.8381 42.0922 53.4078C42.0922 51.9776 40.9275 50.8157 39.4938 50.8157H34.6028V43.8016H35.1103C38.1947 43.8016 40.848 41.6333 41.4594 38.6203L42.138 35.2627H46.5613C47.5334 35.2627 48.371 34.5796 48.5636 33.6281L48.7898 32.518L50.8899 22.1494L50.951 21.8475C51.2078 20.5849 50.2387 19.4047 48.9487 19.4047H48.9579ZM19.3001 32.3655C18.7713 32.3655 18.3128 31.9935 18.2088 31.4751L16.5612 23.9303C16.4542 23.4028 16.8577 22.9118 17.3957 22.9118H19.0647L20.9814 32.3655H19.3001ZM47.136 23.9303L45.4884 31.4751C45.3844 31.9935 44.9259 32.3655 44.3971 32.3655H42.7372L44.6538 22.9118H46.3045C46.8426 22.9118 47.2461 23.4028 47.1391 23.9303H47.136Z" fill="white" fill-opacity="0.1"/>
      <path d="M48.9579 19.4047H45.36L46.2251 15.1353H47.5151C48.6583 15.1353 49.5876 14.2082 49.5876 13.0676C49.5876 11.9271 48.6583 11 47.5151 11H16.2005C15.0541 11 14.1279 11.9271 14.1279 13.0676C14.1279 14.2082 15.0572 15.1353 16.2005 15.1353H17.4905L18.3555 19.4047H15.0419C13.7519 19.4047 12.7829 20.5849 13.0396 21.8475L13.1008 22.1494L15.2009 32.518L15.4271 33.6281C15.6196 34.5796 16.4572 35.2627 17.4293 35.2627H21.5653L22.2439 38.6203C22.8553 41.6364 25.5117 43.8016 28.593 43.8016H29.1005V50.8157H24.2095C22.7758 50.8157 21.6111 51.9776 21.6111 53.4078C21.6111 54.8381 22.7758 56 24.2095 56H39.4938C40.9275 56 42.0922 54.8381 42.0922 53.4078C42.0922 51.9776 40.9275 50.8157 39.4938 50.8157H34.6028V43.8016H35.1103C38.1947 43.8016 40.848 41.6333 41.4594 38.6203L42.138 35.2627H46.5613C47.5334 35.2627 48.371 34.5796 48.5636 33.6281L48.7898 32.518L50.8899 22.1494L50.951 21.8475C51.2078 20.5849 50.2387 19.4047 48.9487 19.4047H48.9579ZM19.3001 32.3655C18.7713 32.3655 18.3128 31.9935 18.2088 31.4751L16.5612 23.9303C16.4542 23.4028 16.8577 22.9118 17.3957 22.9118H19.0647L20.9814 32.3655H19.3001ZM47.136 23.9303L45.4884 31.4751C45.3844 31.9935 44.9259 32.3655 44.3971 32.3655H42.7372L44.6538 22.9118H46.3045C46.8426 22.9118 47.2461 23.4028 47.1391 23.9303H47.136Z" fill="url(#paint1_linear_739_2563)"/>
      <path d="M48.9579 19.4047H45.36L46.2251 15.1353H47.5151C48.6583 15.1353 49.5876 14.2082 49.5876 13.0676C49.5876 11.9271 48.6583 11 47.5151 11H16.2005C15.0541 11 14.1279 11.9271 14.1279 13.0676C14.1279 14.2082 15.0572 15.1353 16.2005 15.1353H17.4905L18.3555 19.4047H15.0419C13.7519 19.4047 12.7829 20.5849 13.0396 21.8475L13.1008 22.1494L15.2009 32.518L15.4271 33.6281C15.6196 34.5796 16.4572 35.2627 17.4293 35.2627H21.5653L22.2439 38.6203C22.8553 41.6364 25.5117 43.8016 28.593 43.8016H29.1005V50.8157H24.2095C22.7758 50.8157 21.6111 51.9776 21.6111 53.4078C21.6111 54.8381 22.7758 56 24.2095 56H39.4938C40.9275 56 42.0922 54.8381 42.0922 53.4078C42.0922 51.9776 40.9275 50.8157 39.4938 50.8157H34.6028V43.8016H35.1103C38.1947 43.8016 40.848 41.6333 41.4594 38.6203L42.138 35.2627H46.5613C47.5334 35.2627 48.371 34.5796 48.5636 33.6281L48.7898 32.518L50.8899 22.1494L50.951 21.8475C51.2078 20.5849 50.2387 19.4047 48.9487 19.4047H48.9579ZM19.3001 32.3655C18.7713 32.3655 18.3128 31.9935 18.2088 31.4751L16.5612 23.9303C16.4542 23.4028 16.8577 22.9118 17.3957 22.9118H19.0647L20.9814 32.3655H19.3001ZM47.136 23.9303L45.4884 31.4751C45.3844 31.9935 44.9259 32.3655 44.3971 32.3655H42.7372L44.6538 22.9118H46.3045C46.8426 22.9118 47.2461 23.4028 47.1391 23.9303H47.136Z" fill="white" fill-opacity="0.1"/>
      <path d="M34.609 43.8015H29.1067V50.8156H34.609V43.8015Z" fill="url(#paint2_linear_739_2563)"/>
      <path d="M34.609 43.8015H29.1067V50.8156H34.609V43.8015Z" fill="white" fill-opacity="0.1"/>
      <path d="M39.5001 50.8157H24.2157C22.7807 50.8157 21.6173 51.9762 21.6173 53.4078C21.6173 54.8395 22.7807 56 24.2157 56H39.5001C40.9351 56 42.0984 54.8395 42.0984 53.4078C42.0984 51.9762 40.9351 50.8157 39.5001 50.8157Z" fill="url(#paint3_linear_739_2563)"/>
      <path d="M39.5001 50.8157H24.2157C22.7807 50.8157 21.6173 51.9762 21.6173 53.4078C21.6173 54.8395 22.7807 56 24.2157 56H39.5001C40.9351 56 42.0984 54.8395 42.0984 53.4078C42.0984 51.9762 40.9351 50.8157 39.5001 50.8157Z" fill="white" fill-opacity="0.1"/>
      <path d="M47.5152 11H16.2006C15.0559 11 14.128 11.9257 14.128 13.0676C14.128 14.2096 15.0559 15.1353 16.2006 15.1353H47.5152C48.6598 15.1353 49.5877 14.2096 49.5877 13.0676C49.5877 11.9257 48.6598 11 47.5152 11Z" fill="url(#paint4_linear_739_2563)"/>
      <path d="M47.5152 11H16.2006C15.0559 11 14.128 11.9257 14.128 13.0676C14.128 14.2096 15.0559 15.1353 16.2006 15.1353H47.5152C48.6598 15.1353 49.5877 14.2096 49.5877 13.0676C49.5877 11.9257 48.6598 11 47.5152 11Z" fill="white" fill-opacity="0.1"/>
      <path d="M35.1165 43.8016H28.5992C25.5148 43.8016 22.8615 41.6333 22.2501 38.6203L17.4905 15.1353H46.2252L41.4656 38.6203C40.8542 41.6363 38.1978 43.8016 35.1165 43.8016V43.8016Z" fill="url(#paint5_linear_739_2563)"/>
      <path d="M35.1165 43.8016H28.5992C25.5148 43.8016 22.8615 41.6333 22.2501 38.6203L17.4905 15.1353H46.2252L41.4656 38.6203C40.8542 41.6363 38.1978 43.8016 35.1165 43.8016V43.8016Z" fill="white" fill-opacity="0.1"/>
      <path d="M19.3002 32.3656C18.7714 32.3656 18.3128 31.9936 18.2089 31.4751L16.5613 23.9304C16.4543 23.4028 16.8578 22.9118 17.3958 22.9118H19.0648L18.3556 19.4048H15.042C13.752 19.4048 12.783 20.585 13.0397 21.8475L13.1009 22.1494L15.2009 32.5181L15.4272 33.6282C15.6197 34.5796 16.4573 35.2627 17.4294 35.2627H21.5654L20.9784 32.3656H19.2972H19.3002Z" fill="url(#paint6_linear_739_2563)"/>
      <path d="M19.3002 32.3656C18.7714 32.3656 18.3128 31.9936 18.2089 31.4751L16.5613 23.9304C16.4543 23.4028 16.8578 22.9118 17.3958 22.9118H19.0648L18.3556 19.4048H15.042C13.752 19.4048 12.783 20.585 13.0397 21.8475L13.1009 22.1494L15.2009 32.5181L15.4272 33.6282C15.6197 34.5796 16.4573 35.2627 17.4294 35.2627H21.5654L20.9784 32.3656H19.2972H19.3002Z" fill="white" fill-opacity="0.1"/>
      <path d="M48.958 19.4048H45.3601L44.6509 22.9118H46.3016C46.8396 22.9118 47.2431 23.4028 47.1361 23.9304L45.4885 31.4751C45.3845 31.9936 44.926 32.3656 44.3972 32.3656H42.7373L42.1504 35.2627H46.5737C47.5457 35.2627 48.3833 34.5796 48.5759 33.6282L48.8021 32.5181L50.9022 22.1494L50.9633 21.8475C51.2201 20.585 50.2511 19.4048 48.9611 19.4048H48.958Z" fill="url(#paint7_linear_739_2563)"/>
      <path d="M48.958 19.4048H45.3601L44.6509 22.9118H46.3016C46.8396 22.9118 47.2431 23.4028 47.1361 23.9304L45.4885 31.4751C45.3845 31.9936 44.926 32.3656 44.3972 32.3656H42.7373L42.1504 35.2627H46.5737C47.5457 35.2627 48.3833 34.5796 48.5759 33.6282L48.8021 32.5181L50.9022 22.1494L50.9633 21.8475C51.2201 20.585 50.2511 19.4048 48.9611 19.4048H48.958Z" fill="white" fill-opacity="0.1"/>
      <g style="mix-blend-mode:hard-light" opacity="0.3" clip-path="url(#clip0_739_2563)">
      <path d="M48.9579 19.4047H45.36L46.2251 15.1353H47.5151C48.6583 15.1353 49.5876 14.2082 49.5876 13.0676C49.5876 11.9271 48.6583 11 47.5151 11H16.2005C15.0541 11 14.1279 11.9271 14.1279 13.0676C14.1279 14.2082 15.0572 15.1353 16.2005 15.1353H17.4905L18.3555 19.4047H15.0419C13.7519 19.4047 12.7829 20.5849 13.0396 21.8475L13.1008 22.1494L15.2009 32.518L15.4271 33.6281C15.6196 34.5796 16.4572 35.2627 17.4293 35.2627H21.5653L22.2439 38.6203C22.8553 41.6364 25.5117 43.8016 28.593 43.8016H29.1005V50.8157H24.2095C22.7758 50.8157 21.6111 51.9776 21.6111 53.4078C21.6111 54.8381 22.7758 56 24.2095 56H39.4938C40.9275 56 42.0922 54.8381 42.0922 53.4078C42.0922 51.9776 40.9275 50.8157 39.4938 50.8157H34.6028V43.8016H35.1103C38.1947 43.8016 40.848 41.6333 41.4594 38.6203L42.138 35.2627H46.5613C47.5334 35.2627 48.371 34.5796 48.5636 33.6281L48.7898 32.518L50.8899 22.1494L50.951 21.8475C51.2078 20.5849 50.2387 19.4047 48.9487 19.4047H48.9579ZM19.3001 32.3655C18.7713 32.3655 18.3128 31.9935 18.2088 31.4751L16.5612 23.9303C16.4542 23.4028 16.8577 22.9118 17.3957 22.9118H19.0647L20.9814 32.3655H19.3001ZM47.136 23.9303L45.4884 31.4751C45.3844 31.9935 44.9259 32.3655 44.3971 32.3655H42.7372L44.6538 22.9118H46.3045C46.8426 22.9118 47.2461 23.4028 47.1391 23.9303H47.136Z" fill="black" fill-opacity="0.3"/>
      <path d="M34.609 43.8016H29.1067V50.8157H34.609V43.8016Z" fill="url(#paint8_linear_739_2563)" fill-opacity="0.6"/>
      <path d="M39.5 50.8157H24.2157C22.7806 50.8157 21.6173 51.9762 21.6173 53.4078C21.6173 54.8395 22.7806 56 24.2157 56H39.5C40.9351 56 42.0984 54.8395 42.0984 53.4078C42.0984 51.9762 40.9351 50.8157 39.5 50.8157Z" fill="url(#paint9_linear_739_2563)" fill-opacity="0.5"/>
      <path d="M47.5152 11H16.2005C15.0559 11 14.128 11.9257 14.128 13.0676C14.128 14.2096 15.0559 15.1353 16.2005 15.1353H47.5152C48.6598 15.1353 49.5877 14.2096 49.5877 13.0676C49.5877 11.9257 48.6598 11 47.5152 11Z" fill="url(#paint10_linear_739_2563)" fill-opacity="0.7"/>
      <path d="M35.1165 43.8016H28.5992C25.5148 43.8016 22.8615 41.6333 22.2501 38.6203L17.4905 15.1353H46.2252L41.4656 38.6203C40.8542 41.6364 38.1978 43.8016 35.1165 43.8016V43.8016Z" fill="url(#paint11_linear_739_2563)" fill-opacity="0.5"/>
      <path d="M19.3002 32.3655C18.7714 32.3655 18.3128 31.9935 18.2089 31.4751L16.5613 23.9303C16.4543 23.4028 16.8578 22.9118 17.3958 22.9118H19.0648L18.3556 19.4047H15.042C13.752 19.4047 12.783 20.5849 13.0397 21.8475L13.1009 22.1494L15.2009 32.518L15.4272 33.6281C15.6197 34.5796 16.4573 35.2627 17.4294 35.2627H21.5654L20.9784 32.3655H19.2972H19.3002Z" fill="url(#paint12_linear_739_2563)" fill-opacity="0.3"/>
      <path d="M48.958 19.4047H45.3601L44.6509 22.9118H46.3016C46.8396 22.9118 47.2431 23.4028 47.1361 23.9303L45.4885 31.4751C45.3845 31.9935 44.926 32.3655 44.3971 32.3655H42.7373L42.1503 35.2627H46.5736C47.5457 35.2627 48.3833 34.5796 48.5759 33.6281L48.8021 32.518L50.9022 22.1494L50.9633 21.8475C51.2201 20.5849 50.2511 19.4047 48.9611 19.4047H48.958Z" fill="url(#paint13_linear_739_2563)" fill-opacity="0.3"/>
      </g>
      <g style="mix-blend-mode:hard-light" opacity="0.2" clip-path="url(#clip1_739_2563)">
      <path d="M48.9579 19.4047H45.36L46.2251 15.1353H47.5151C48.6583 15.1353 49.5876 14.2082 49.5876 13.0676C49.5876 11.9271 48.6583 11 47.5151 11H16.2005C15.0541 11 14.1279 11.9271 14.1279 13.0676C14.1279 14.2082 15.0572 15.1353 16.2005 15.1353H17.4905L18.3555 19.4047H15.0419C13.7519 19.4047 12.7829 20.5849 13.0396 21.8475L13.1008 22.1494L15.2009 32.518L15.4271 33.6281C15.6196 34.5796 16.4572 35.2627 17.4293 35.2627H21.5653L22.2439 38.6203C22.8553 41.6364 25.5117 43.8016 28.593 43.8016H29.1005V50.8157H24.2095C22.7758 50.8157 21.6111 51.9776 21.6111 53.4078C21.6111 54.8381 22.7758 56 24.2095 56H39.4938C40.9275 56 42.0922 54.8381 42.0922 53.4078C42.0922 51.9776 40.9275 50.8157 39.4938 50.8157H34.6028V43.8016H35.1103C38.1947 43.8016 40.848 41.6333 41.4594 38.6203L42.138 35.2627H46.5613C47.5334 35.2627 48.371 34.5796 48.5636 33.6281L48.7898 32.518L50.8899 22.1494L50.951 21.8475C51.2078 20.5849 50.2387 19.4047 48.9487 19.4047H48.9579ZM19.3001 32.3655C18.7713 32.3655 18.3128 31.9935 18.2088 31.4751L16.5612 23.9303C16.4542 23.4028 16.8577 22.9118 17.3957 22.9118H19.0647L20.9814 32.3655H19.3001ZM47.136 23.9303L45.4884 31.4751C45.3844 31.9935 44.9259 32.3655 44.3971 32.3655H42.7372L44.6538 22.9118H46.3045C46.8426 22.9118 47.2461 23.4028 47.1391 23.9303H47.136Z" fill="white"/>
      <path d="M34.609 43.8016H29.1067V50.8157H34.609V43.8016Z" fill="white"/>
      <path d="M39.5 50.8157H24.2157C22.7806 50.8157 21.6173 51.9762 21.6173 53.4078C21.6173 54.8395 22.7806 56 24.2157 56H39.5C40.9351 56 42.0984 54.8395 42.0984 53.4078C42.0984 51.9762 40.9351 50.8157 39.5 50.8157Z" fill="white"/>
      <path d="M47.5152 11H16.2005C15.0559 11 14.128 11.9257 14.128 13.0676C14.128 14.2096 15.0559 15.1353 16.2005 15.1353H47.5152C48.6598 15.1353 49.5877 14.2096 49.5877 13.0676C49.5877 11.9257 48.6598 11 47.5152 11Z" fill="white"/>
      <path d="M35.1165 43.8016H28.5992C25.5148 43.8016 22.8615 41.6333 22.2501 38.6203L17.4905 15.1353H46.2252L41.4656 38.6203C40.8542 41.6364 38.1978 43.8016 35.1165 43.8016V43.8016Z" fill="white"/>
      <path d="M19.3002 32.3655C18.7714 32.3655 18.3128 31.9935 18.2089 31.4751L16.5613 23.9303C16.4543 23.4028 16.8578 22.9118 17.3958 22.9118H19.0648L18.3556 19.4047H15.042C13.752 19.4047 12.783 20.5849 13.0397 21.8475L13.1009 22.1494L15.2009 32.518L15.4272 33.6281C15.6197 34.5796 16.4573 35.2627 17.4294 35.2627H21.5654L20.9784 32.3655H19.2972H19.3002Z" fill="white"/>
      <path d="M48.958 19.4047H45.3601L44.6509 22.9118H46.3016C46.8396 22.9118 47.2431 23.4028 47.1361 23.9303L45.4885 31.4751C45.3845 31.9935 44.926 32.3655 44.3971 32.3655H42.7373L42.1503 35.2627H46.5736C47.5457 35.2627 48.3833 34.5796 48.5759 33.6281L48.8021 32.518L50.9022 22.1494L50.9633 21.8475C51.2201 20.5849 50.2511 19.4047 48.9611 19.4047H48.958Z" fill="white"/>
      </g>
      <defs>
      <linearGradient id="paint0_linear_739_2563" x1="12.9982" y1="11" x2="51.7302" y2="11.6442" gradientUnits="userSpaceOnUse">
      <stop stop-color="#FFE713"/>
      <stop offset="0.505208" stop-color="#F29F23"/>
      <stop offset="1" stop-color="#FF7A00"/>
      </linearGradient>
      <linearGradient id="paint1_linear_739_2563" x1="12.9982" y1="11" x2="51.7302" y2="11.6442" gradientUnits="userSpaceOnUse">
      <stop stop-color="#FFE713"/>
      <stop offset="0.505208" stop-color="#F29F23"/>
      <stop offset="1" stop-color="#FF7A00"/>
      </linearGradient>
      <linearGradient id="paint2_linear_739_2563" x1="29.1067" y1="43.8015" x2="34.7161" y2="43.8882" gradientUnits="userSpaceOnUse">
      <stop stop-color="#FFE713"/>
      <stop offset="0.505208" stop-color="#F29F23"/>
      <stop offset="1" stop-color="#FF7A00"/>
      </linearGradient>
      <linearGradient id="paint3_linear_739_2563" x1="21.6173" y1="50.8157" x2="42.3761" y2="52.4311" gradientUnits="userSpaceOnUse">
      <stop stop-color="#FFE713"/>
      <stop offset="0.505208" stop-color="#F29F23"/>
      <stop offset="1" stop-color="#FF7A00"/>
      </linearGradient>
      <linearGradient id="paint4_linear_739_2563" x1="14.128" y1="11" x2="49.2832" y2="16.9382" gradientUnits="userSpaceOnUse">
      <stop stop-color="#FFE713"/>
      <stop offset="0.505208" stop-color="#F29F23"/>
      <stop offset="1" stop-color="#FF7A00"/>
      </linearGradient>
      <linearGradient id="paint5_linear_739_2563" x1="17.4905" y1="15.1353" x2="46.7798" y2="15.7136" gradientUnits="userSpaceOnUse">
      <stop stop-color="#FFE713"/>
      <stop offset="0.505208" stop-color="#F29F23"/>
      <stop offset="1" stop-color="#FF7A00"/>
      </linearGradient>
      <linearGradient id="paint6_linear_739_2563" x1="12.9983" y1="19.4048" x2="21.7331" y2="19.4977" gradientUnits="userSpaceOnUse">
      <stop stop-color="#FFE713"/>
      <stop offset="0.505208" stop-color="#F29F23"/>
      <stop offset="1" stop-color="#FF7A00"/>
      </linearGradient>
      <linearGradient id="paint7_linear_739_2563" x1="42.1504" y1="19.4048" x2="51.1781" y2="19.5041" gradientUnits="userSpaceOnUse">
      <stop stop-color="#FFE713"/>
      <stop offset="0.505208" stop-color="#F29F23"/>
      <stop offset="1" stop-color="#FF7A00"/>
      </linearGradient>
      <linearGradient id="paint8_linear_739_2563" x1="31.8579" y1="43.8016" x2="31.8579" y2="50.8157" gradientUnits="userSpaceOnUse">
      <stop stop-color="white"/>
      <stop offset="1" stop-color="white" stop-opacity="0"/>
      </linearGradient>
      <linearGradient id="paint9_linear_739_2563" x1="31.8579" y1="50.8157" x2="31.8579" y2="56" gradientUnits="userSpaceOnUse">
      <stop stop-color="white"/>
      <stop offset="1" stop-color="white" stop-opacity="0"/>
      </linearGradient>
      <linearGradient id="paint10_linear_739_2563" x1="31.8579" y1="11" x2="31.8579" y2="15.1353" gradientUnits="userSpaceOnUse">
      <stop stop-color="white"/>
      <stop offset="1" stop-color="white" stop-opacity="0"/>
      </linearGradient>
      <linearGradient id="paint11_linear_739_2563" x1="31.8579" y1="15.1353" x2="31.8579" y2="43.8016" gradientUnits="userSpaceOnUse">
      <stop stop-color="white"/>
      <stop offset="1" stop-color="white" stop-opacity="0"/>
      </linearGradient>
      <linearGradient id="paint12_linear_739_2563" x1="20" y1="26.9999" x2="14" y2="27.9999" gradientUnits="userSpaceOnUse">
      <stop stop-color="white"/>
      <stop offset="1" stop-color="white" stop-opacity="0"/>
      </linearGradient>
      <linearGradient id="paint13_linear_739_2563" x1="44" y1="27.4999" x2="49.5" y2="28.4999" gradientUnits="userSpaceOnUse">
      <stop stop-color="white"/>
      <stop offset="1" stop-color="white" stop-opacity="0"/>
      </linearGradient>
      <clipPath id="clip0_739_2563">
      <rect width="38" height="45" fill="white" transform="translate(13 11)"/>
      </clipPath>
      <clipPath id="clip1_739_2563">
      <rect width="38" height="45" fill="white" transform="translate(13 11)"/>
      </clipPath>
      </defs>
  </svg>
</g>
<g id ="badgeGradeTextGroupB-00" opacity="0">
  <text id="badgeTitle" x="62" y="36" font-family="Inter, Sans-Serif" font-weight="700" font-size="11px" dominant-baseline="middle" text-anchor="middle" letter-spacing="-0.5px" fill="#FFFFFF">B-</text>
</g>
<g id="barCurrentB-00" mask="url(#barClipPathB-00)">
  <rect x="12" y="110" width="100" height="2" rx="1" fill="url(#barColorGradientB00)"/>
  <rect x="12" y="110" width="200" height="2" rx="1" fill="#FFFFFF" opacity="0.1"/>
</g>

      </g>
      <g id="editTitleTextGroup00">
<g id ="badgeTitleTextGroupB-00" opacity="0">
<text id="badgeTitleB-00" x="62" y="82" font-family="Inter, Sans-Serif" font-weight="700" font-size="11px" dominant-baseline="middle" text-anchor="middle" fill="#F4A93A">undefined</text>
</g>
      </g>
      <g id="editSubtitleTextGroup00">
          <g id="badgeSubtitleGroup00" opacity="0">
              <text id="badgeSubtitle00" x="62" y="93.5" font-family="Inter, Sans-Serif" font-weight="400" font-size="9px" dominant-baseline="middle" text-anchor="middle" fill="white" fill-opacity="0.3">71</text>
          </g>
      </g>
      <defs>
          <animate begin="0.30s" xlink:href="#backgroundInnerLineActiveB-00" attributeName="opacity" attributeType="XML" dur="1s" fill="freeze" from="0" to="1"/>
          <animate begin="0.20s" xlink:href="#trophySVGB-00" attributeName="opacity" attributeType="XML" dur="0.3s" fill="freeze" from="0" to="1"/>
          <animate begin="0.20s" xlink:href="#badgeGradeTextGroupB-00" attributeName="opacity" attributeType="XML" dur="0.3s" fill="freeze" from="0" to="1"/>
          <animate begin="0.40s" xlink:href="#badgeTitleTextGroupB-00" attributeName="opacity" attributeType="XML" dur="0.2s" fill="freeze" from="0" to="1"/>
      </defs>
      <defs>
          <animate begin="0.70s" xlink:href="#barClipPathShapeB-00" attributeName="width" attributeType="XML" dur="0.4s" fill="freeze" from="0" to="7.831763642722251"/>
      </defs>
  </svg>
</g>,<g id="trophySet1">
  <svg x="124" y="0" width="124" height="124" viewBox="0 0 124 124" fill="none" xmlns="http://www.w3.org/2000/svg">
  <rect x="2" y="2" width="120" height="120" rx="4" class="backgroundColor"/>
<defs>
<linearGradient id="innerLineColorB01" x1="4" y1="4" x2="122.5" y2="6.5" gradientUnits="userSpaceOnUse">
  <stop offset="0" stop-color="#FFE713" stop-opacity="1"/>
  <stop offset="0.5" stop-color="#F29F23" stop-opacity="1"/>
  <stop offset="1" stop-color="#FF7A00" stop-opacity="1"/>
</linearGradient>
<linearGradient id="barColorGradientB01" x1="12" y1="110" x2="112" y2="110" gradientUnits="userSpaceOnUse">
  <stop offset="0" stop-color="#FFE713" stop-opacity="1"/>
  <stop offset="0.5" stop-color="#F29F23" stop-opacity="1"/>
  <stop offset="1" stop-color="#FF7A00" stop-opacity="1"/>
</linearGradient>
<mask id="barClipPathB01" style="mask-type:alpha" maskUnits="userSpaceOnUse" x="12" y="110" width="100" height="2">
  <rect id="barClipPathShapeB01" x="12" y="110" width="0" height="2" rx="1" fill="white"/>
</mask>
  <animate begin="0.00s" xlink:href="#trophySVGBase01" attributeName="opacity" attributeType="XML" dur="0.3s" fill="freeze" from="0.5" to="0"/>
  <animate begin="0.50s" xlink:href="#badgeSubtitleGroup01" attributeName="opacity" attributeType="XML" dur="0.2s" fill="freeze" from="0" to="1"/>
</defs>
      <g id="baseGroup01">
          <!-- Background Inner Line Base -->
          <g id="backgroundInnerLineBase01">
              <rect opacity="0.5" x="4.25" y="4.25" width="115.5" height="115.5" rx="3.75" stroke="#8D8D8D" stroke-width="0.3"/>
          </g>
          <!-- Trophy Base -->
          <g id="trophySVGBase01" opacity="0.5">
              <svg x="42" y="21" width="39" height="45" viewBox="0 0 39 45" fill="none" xmlns="http://www.w3.org/2000/svg">
                  <path d="M36.9517 8.40472H33.3544L34.2193 4.13527H35.5091C36.6522 4.13527 37.5813 3.20819 37.5813 2.06763C37.5813 0.927081 36.6522 0 35.5091 0H4.1999C3.05377 0 2.1277 0.927081 2.1277 2.06763C2.1277 3.20819 3.05683 4.13527 4.1999 4.13527H5.48968L6.35462 8.40472H3.04155C1.75177 8.40472 0.782906 9.58491 1.03964 10.8475L1.10077 11.1494L3.20048 21.518L3.42664 22.6281C3.61919 23.5796 4.45663 24.2627 5.42855 24.2627H9.56379L10.2423 27.6203C10.8536 30.6364 13.5095 32.8016 16.5903 32.8016H17.0977V39.8157H12.2075C10.7741 39.8157 9.60963 40.9776 9.60963 42.4078C9.60963 43.8381 10.7741 45 12.2075 45H27.4893C28.9227 45 30.0871 43.8381 30.0871 42.4078C30.0871 40.9776 28.9227 39.8157 27.4893 39.8157H22.5991V32.8016H23.1065C26.1903 32.8016 28.8432 30.6333 29.4545 27.6203L30.133 24.2627H34.5555C35.5274 24.2627 36.3649 23.5796 36.5574 22.6281L36.7836 21.518L38.8833 11.1494L38.9444 10.8475C39.2012 9.58491 38.2323 8.40472 36.9425 8.40472H36.9517ZM7.29903 21.3655C6.77029 21.3655 6.31183 20.9935 6.20792 20.4751L4.56055 12.9303C4.45358 12.4028 4.85701 11.9118 5.39493 11.9118H7.0637L8.98002 21.3655H7.29903ZM35.1301 12.9303L33.4827 20.4751C33.3788 20.9935 32.9204 21.3655 32.3916 21.3655H30.732L32.6484 11.9118H34.2988C34.8367 11.9118 35.2401 12.4028 35.1332 12.9303H35.1301Z" fill="url(#paint0_linear_739_1567)"/>
                  <path d="M22.6062 32.8015H17.1039V39.8156H22.6062V32.8015Z" fill="url(#paint1_linear_739_1567)"/>
                  <path d="M27.4955 39.8157H12.2137C10.779 39.8157 9.61584 40.9762 9.61584 42.4078C9.61584 43.8395 10.779 45 12.2137 45H27.4955C28.9302 45 30.0934 43.8395 30.0934 42.4078C30.0934 40.9762 28.9302 39.8157 27.4955 39.8157Z" fill="url(#paint2_linear_739_1567)"/>
                  <path d="M35.5094 0H4.20019C3.05575 0 2.12799 0.925711 2.12799 2.06763C2.12799 3.20956 3.05575 4.13527 4.20019 4.13527H35.5094C36.6538 4.13527 37.5816 3.20956 37.5816 2.06763C37.5816 0.925711 36.6538 0 35.5094 0Z" fill="url(#paint3_linear_739_1567)"/>
                  <path d="M23.1126 32.8016H16.5965C13.5127 32.8016 10.8598 30.6333 10.2485 27.6203L5.48976 4.13525H34.2194L29.4607 27.6203C28.8494 30.6363 26.1934 32.8016 23.1126 32.8016V32.8016Z" fill="url(#paint4_linear_739_1567)"/>
                  <path d="M7.29913 21.3656C6.77038 21.3656 6.31193 20.9936 6.20801 20.4751L4.56064 12.9304C4.45367 12.4028 4.85711 11.9118 5.39502 11.9118H7.06379L6.35471 8.40479H3.04164C1.75186 8.40479 0.782998 9.58498 1.03973 10.8475L1.10086 11.1494L3.20057 21.5181L3.42674 22.6282C3.61929 23.5796 4.45672 24.2627 5.42864 24.2627H9.56388L8.97706 21.3656H7.29607H7.29913Z" fill="url(#paint5_linear_739_1567)"/>
                  <path d="M36.9518 8.40479H33.3545L32.6454 11.9118H34.2958C34.8337 11.9118 35.2372 12.4028 35.1302 12.9304L33.4828 20.4751C33.3789 20.9936 32.9205 21.3656 32.3917 21.3656H30.7321L30.1453 24.2627H34.5678C35.5398 24.2627 36.3772 23.5796 36.5697 22.6282L36.7959 21.5181L38.8956 11.1494L38.9568 10.8475C39.2135 9.58498 38.2446 8.40479 36.9548 8.40479H36.9518Z" fill="url(#paint6_linear_739_1567)"/>
                  <g style="mix-blend-mode:hard-light" opacity="0.3" clip-path="url(#clip0_739_1567)">
                  <path d="M36.9517 8.40472H33.3544L34.2193 4.13527H35.5091C36.6522 4.13527 37.5813 3.20819 37.5813 2.06763C37.5813 0.927081 36.6522 0 35.5091 0H4.1999C3.05377 0 2.1277 0.927081 2.1277 2.06763C2.1277 3.20819 3.05683 4.13527 4.1999 4.13527H5.48968L6.35462 8.40472H3.04154C1.75177 8.40472 0.782906 9.58491 1.03964 10.8475L1.10077 11.1494L3.20047 21.518L3.42664 22.6281C3.61919 23.5796 4.45663 24.2627 5.42855 24.2627H9.56379L10.2423 27.6203C10.8536 30.6364 13.5095 32.8016 16.5903 32.8016H17.0977V39.8157H12.2075C10.7741 39.8157 9.60963 40.9776 9.60963 42.4078C9.60963 43.8381 10.7741 45 12.2075 45H27.4892C28.9227 45 30.0871 43.8381 30.0871 42.4078C30.0871 40.9776 28.9227 39.8157 27.4892 39.8157H22.5991V32.8016H23.1065C26.1903 32.8016 28.8432 30.6333 29.4545 27.6203L30.133 24.2627H34.5555C35.5274 24.2627 36.3649 23.5796 36.5574 22.6281L36.7836 21.518L38.8833 11.1494L38.9444 10.8475C39.2012 9.58491 38.2323 8.40472 36.9425 8.40472H36.9517ZM7.29903 21.3655C6.77029 21.3655 6.31183 20.9935 6.20792 20.4751L4.56055 12.9303C4.45358 12.4028 4.85701 11.9118 5.39493 11.9118H7.06369L8.98002 21.3655H7.29903ZM35.1301 12.9303L33.4827 20.4751C33.3788 20.9935 32.9204 21.3655 32.3916 21.3655H30.732L32.6484 11.9118H34.2988C34.8367 11.9118 35.2401 12.4028 35.1332 12.9303H35.1301Z" fill="black" fill-opacity="0.3"/>
                  <path d="M22.6063 32.8015H17.1039V39.8156H22.6063V32.8015Z" fill="url(#paint7_linear_739_1567)" fill-opacity="0.6"/>
                  <path d="M27.4954 39.8157H12.2137C10.7789 39.8157 9.61583 40.9762 9.61583 42.4078C9.61583 43.8395 10.7789 45 12.2137 45H27.4954C28.9302 45 30.0933 43.8395 30.0933 42.4078C30.0933 40.9762 28.9302 39.8157 27.4954 39.8157Z" fill="url(#paint8_linear_739_1567)" fill-opacity="0.5"/>
                  <path d="M35.5094 0H4.20019C3.05575 0 2.12799 0.925711 2.12799 2.06763C2.12799 3.20956 3.05575 4.13527 4.20019 4.13527H35.5094C36.6538 4.13527 37.5816 3.20956 37.5816 2.06763C37.5816 0.925711 36.6538 0 35.5094 0Z" fill="url(#paint9_linear_739_1567)" fill-opacity="0.7"/>
                  <path d="M23.1127 32.8016H16.5965C13.5127 32.8016 10.8598 30.6333 10.2485 27.6203L5.48978 4.13525H34.2194L29.4607 27.6203C28.8494 30.6363 26.1935 32.8016 23.1127 32.8016V32.8016Z" fill="url(#paint10_linear_739_1567)" fill-opacity="0.5"/>
                  <path d="M7.29912 21.3655C6.77038 21.3655 6.31193 20.9934 6.20801 20.475L4.56064 12.9303C4.45367 12.4027 4.8571 11.9117 5.39502 11.9117H7.06379L6.35471 8.40466H3.04164C1.75186 8.40466 0.782998 9.58486 1.03973 10.8474L1.10086 11.1493L3.20057 21.518L3.42674 22.628C3.61929 23.5795 4.45672 24.2626 5.42864 24.2626H9.56388L8.97706 21.3655H7.29607H7.29912Z" fill="url(#paint11_linear_739_1567)" fill-opacity="0.3"/>
                  <path d="M36.9518 8.40466H33.3545L32.6454 11.9117H34.2958C34.8337 11.9117 35.2372 12.4027 35.1302 12.9303L33.4828 20.475C33.3789 20.9934 32.9205 21.3655 32.3917 21.3655H30.7321L30.1453 24.2626H34.5678C35.5398 24.2626 36.3772 23.5795 36.5697 22.628L36.7959 21.518L38.8956 11.1493L38.9568 10.8474C39.2135 9.58486 38.2446 8.40466 36.9548 8.40466H36.9518Z" fill="url(#paint12_linear_739_1567)" fill-opacity="0.3"/>
                  </g>
                  <g opacity="0.1" clip-path="url(#clip1_739_1567)">
                  <path d="M36.9517 8.40472H33.3544L34.2193 4.13527H35.5091C36.6522 4.13527 37.5813 3.20819 37.5813 2.06763C37.5813 0.927081 36.6522 0 35.5091 0H4.1999C3.05377 0 2.1277 0.927081 2.1277 2.06763C2.1277 3.20819 3.05683 4.13527 4.1999 4.13527H5.48968L6.35462 8.40472H3.04154C1.75177 8.40472 0.782906 9.58491 1.03964 10.8475L1.10077 11.1494L3.20047 21.518L3.42664 22.6281C3.61919 23.5796 4.45663 24.2627 5.42855 24.2627H9.56379L10.2423 27.6203C10.8536 30.6364 13.5095 32.8016 16.5903 32.8016H17.0977V39.8157H12.2075C10.7741 39.8157 9.60963 40.9776 9.60963 42.4078C9.60963 43.8381 10.7741 45 12.2075 45H27.4892C28.9227 45 30.0871 43.8381 30.0871 42.4078C30.0871 40.9776 28.9227 39.8157 27.4892 39.8157H22.5991V32.8016H23.1065C26.1903 32.8016 28.8432 30.6333 29.4545 27.6203L30.133 24.2627H34.5555C35.5274 24.2627 36.3649 23.5796 36.5574 22.6281L36.7836 21.518L38.8833 11.1494L38.9444 10.8475C39.2012 9.58491 38.2323 8.40472 36.9425 8.40472H36.9517ZM7.29903 21.3655C6.77029 21.3655 6.31183 20.9935 6.20792 20.4751L4.56055 12.9303C4.45358 12.4028 4.85701 11.9118 5.39493 11.9118H7.06369L8.98002 21.3655H7.29903ZM35.1301 12.9303L33.4827 20.4751C33.3788 20.9935 32.9204 21.3655 32.3916 21.3655H30.732L32.6484 11.9118H34.2988C34.8367 11.9118 35.2401 12.4028 35.1332 12.9303H35.1301Z" fill="white"/>
                  <path d="M22.6063 32.8015H17.1039V39.8156H22.6063V32.8015Z" fill="white"/>
                  <path d="M27.4954 39.8157H12.2137C10.7789 39.8157 9.61583 40.9762 9.61583 42.4078C9.61583 43.8395 10.7789 45 12.2137 45H27.4954C28.9302 45 30.0933 43.8395 30.0933 42.4078C30.0933 40.9762 28.9302 39.8157 27.4954 39.8157Z" fill="white"/>
                  <path d="M35.5094 0H4.20019C3.05575 0 2.12799 0.925711 2.12799 2.06763C2.12799 3.20956 3.05575 4.13527 4.20019 4.13527H35.5094C36.6538 4.13527 37.5816 3.20956 37.5816 2.06763C37.5816 0.925711 36.6538 0 35.5094 0Z" fill="white"/>
                  <path d="M23.1127 32.8016H16.5965C13.5127 32.8016 10.8598 30.6333 10.2485 27.6203L5.48978 4.13525H34.2194L29.4607 27.6203C28.8494 30.6363 26.1935 32.8016 23.1127 32.8016V32.8016Z" fill="white"/>
                  <path d="M7.29912 21.3655C6.77038 21.3655 6.31193 20.9934 6.20801 20.475L4.56064 12.9303C4.45367 12.4027 4.8571 11.9117 5.39502 11.9117H7.06379L6.35471 8.40466H3.04164C1.75186 8.40466 0.782998 9.58486 1.03973 10.8474L1.10086 11.1493L3.20057 21.518L3.42674 22.628C3.61929 23.5795 4.45672 24.2626 5.42864 24.2626H9.56388L8.97706 21.3655H7.29607H7.29912Z" fill="white"/>
                  <path d="M36.9518 8.40466H33.3545L32.6454 11.9117H34.2958C34.8337 11.9117 35.2372 12.4027 35.1302 12.9303L33.4828 20.475C33.3789 20.9934 32.9205 21.3655 32.3917 21.3655H30.7321L30.1453 24.2626H34.5678C35.5398 24.2626 36.3772 23.5795 36.5697 22.628L36.7959 21.518L38.8956 11.1493L38.9568 10.8474C39.2135 9.58486 38.2446 8.40466 36.9548 8.40466H36.9518Z" fill="white"/>
                  </g>
                  <defs>
                  <linearGradient id="paint0_linear_739_1567" x1="0.998199" y1="22.9787" x2="38.9859" y2="22.9787" gradientUnits="userSpaceOnUse">
                  <stop stop-color="#CFCFCF" stop-opacity="0.5"/>
                  <stop offset="0.510417" stop-color="#8F8F8F" stop-opacity="0.3"/>
                  <stop offset="1" stop-opacity="0.5"/>
                  </linearGradient>
                  <linearGradient id="paint1_linear_739_1567" x1="17.1039" y1="36.3832" x2="22.6062" y2="36.3832" gradientUnits="userSpaceOnUse">
                  <stop stop-color="#CFCFCF" stop-opacity="0.5"/>
                  <stop offset="0.510417" stop-color="#8F8F8F" stop-opacity="0.3"/>
                  <stop offset="1" stop-opacity="0.5"/>
                  </linearGradient>
                  <linearGradient id="paint2_linear_739_1567" x1="9.61584" y1="42.463" x2="30.0934" y2="42.463" gradientUnits="userSpaceOnUse">
                  <stop stop-color="#CFCFCF" stop-opacity="0.5"/>
                  <stop offset="0.510417" stop-color="#8F8F8F" stop-opacity="0.3"/>
                  <stop offset="1" stop-opacity="0.5"/>
                  </linearGradient>
                  <linearGradient id="paint3_linear_739_1567" x1="2.12799" y1="2.11163" x2="37.5816" y2="2.11163" gradientUnits="userSpaceOnUse">
                  <stop stop-color="#CFCFCF" stop-opacity="0.5"/>
                  <stop offset="0.510417" stop-color="#8F8F8F" stop-opacity="0.3"/>
                  <stop offset="1" stop-opacity="0.5"/>
                  </linearGradient>
                  <linearGradient id="paint4_linear_739_1567" x1="5.48976" y1="18.7734" x2="34.2194" y2="18.7734" gradientUnits="userSpaceOnUse">
                  <stop stop-color="#CFCFCF" stop-opacity="0.5"/>
                  <stop offset="0.510417" stop-color="#8F8F8F" stop-opacity="0.3"/>
                  <stop offset="1" stop-opacity="0.5"/>
                  </linearGradient>
                  <linearGradient id="paint5_linear_739_1567" x1="0.998291" y1="16.5025" x2="9.56388" y2="16.5025" gradientUnits="userSpaceOnUse">
                  <stop stop-color="#CFCFCF" stop-opacity="0.5"/>
                  <stop offset="0.510417" stop-color="#8F8F8F" stop-opacity="0.3"/>
                  <stop offset="1" stop-opacity="0.5"/>
                  </linearGradient>
                  <linearGradient id="paint6_linear_739_1567" x1="30.1453" y1="16.5025" x2="38.9982" y2="16.5025" gradientUnits="userSpaceOnUse">
                  <stop stop-color="#CFCFCF" stop-opacity="0.5"/>
                  <stop offset="0.510417" stop-color="#8F8F8F" stop-opacity="0.3"/>
                  <stop offset="1" stop-opacity="0.5"/>
                  </linearGradient>
                  <linearGradient id="paint7_linear_739_1567" x1="19.8551" y1="32.8015" x2="19.8551" y2="39.8156" gradientUnits="userSpaceOnUse">
                  <stop stop-color="white"/>
                  <stop offset="1" stop-color="white" stop-opacity="0"/>
                  </linearGradient>
                  <linearGradient id="paint8_linear_739_1567" x1="19.8546" y1="39.8157" x2="19.8546" y2="45" gradientUnits="userSpaceOnUse">
                  <stop stop-color="white"/>
                  <stop offset="1" stop-color="white" stop-opacity="0"/>
                  </linearGradient>
                  <linearGradient id="paint9_linear_739_1567" x1="19.8548" y1="0" x2="19.8548" y2="4.13527" gradientUnits="userSpaceOnUse">
                  <stop stop-color="white"/>
                  <stop offset="1" stop-color="white" stop-opacity="0"/>
                  </linearGradient>
                  <linearGradient id="paint10_linear_739_1567" x1="19.8546" y1="4.13525" x2="19.8546" y2="32.8016" gradientUnits="userSpaceOnUse">
                  <stop stop-color="white"/>
                  <stop offset="1" stop-color="white" stop-opacity="0"/>
                  </linearGradient>
                  <linearGradient id="paint11_linear_739_1567" x1="7.99879" y1="15.9999" x2="1.99977" y2="16.9995" gradientUnits="userSpaceOnUse">
                  <stop stop-color="white"/>
                  <stop offset="1" stop-color="white" stop-opacity="0"/>
                  </linearGradient>
                  <linearGradient id="paint12_linear_739_1567" x1="31.9946" y1="16.4999" x2="37.4937" y2="17.4995" gradientUnits="userSpaceOnUse">
                  <stop stop-color="white"/>
                  <stop offset="1" stop-color="white" stop-opacity="0"/>
                  </linearGradient>
                  <clipPath id="clip0_739_1567">
                  <rect width="37.9934" height="45" fill="white" transform="translate(1)"/>
                  </clipPath>
                  <clipPath id="clip1_739_1567">
                  <rect width="37.9934" height="45" fill="white" transform="translate(1)"/>
                  </clipPath>
                  </defs>
              </svg>
          </g>
          <!-- Bar Background Base -->
          <g id="barBackgroundBase01">
              <rect x="12" y="110" width="100" height="2" rx="1" fill="#8D8D8D" fill-opacity="0.3"/>
          </g>
      </g>
      <g id="activeGroup01">
<g id="backgroundInnerLineActiveB01" opacity="0">
<rect x="4.25" y="4.25" width="115.5" height="115.5" rx="3.75" stroke="url(#innerLineColorB01)" stroke-width="0.5"/>
<rect x="4.25" y="4.25" width="115.5" height="115.5" rx="3.75" stroke="#FFFFFF" stroke-opacity="0.1" stroke-width="0.5"/>
</g>
<g id="trophySVGB01" opacity="0">
  <svg x="30" y="10" width="64" height="64" viewBox="0 0 64 64" fill="none" xmlns="http://www.w3.org/2000/svg">
      <path d="M48.9579 19.4047H45.36L46.2251 15.1353H47.5151C48.6583 15.1353 49.5876 14.2082 49.5876 13.0676C49.5876 11.9271 48.6583 11 47.5151 11H16.2005C15.0541 11 14.1279 11.9271 14.1279 13.0676C14.1279 14.2082 15.0572 15.1353 16.2005 15.1353H17.4905L18.3555 19.4047H15.0419C13.7519 19.4047 12.7829 20.5849 13.0396 21.8475L13.1008 22.1494L15.2009 32.518L15.4271 33.6281C15.6196 34.5796 16.4572 35.2627 17.4293 35.2627H21.5653L22.2439 38.6203C22.8553 41.6364 25.5117 43.8016 28.593 43.8016H29.1005V50.8157H24.2095C22.7758 50.8157 21.6111 51.9776 21.6111 53.4078C21.6111 54.8381 22.7758 56 24.2095 56H39.4938C40.9275 56 42.0922 54.8381 42.0922 53.4078C42.0922 51.9776 40.9275 50.8157 39.4938 50.8157H34.6028V43.8016H35.1103C38.1947 43.8016 40.848 41.6333 41.4594 38.6203L42.138 35.2627H46.5613C47.5334 35.2627 48.371 34.5796 48.5636 33.6281L48.7898 32.518L50.8899 22.1494L50.951 21.8475C51.2078 20.5849 50.2387 19.4047 48.9487 19.4047H48.9579ZM19.3001 32.3655C18.7713 32.3655 18.3128 31.9935 18.2088 31.4751L16.5612 23.9303C16.4542 23.4028 16.8577 22.9118 17.3957 22.9118H19.0647L20.9814 32.3655H19.3001ZM47.136 23.9303L45.4884 31.4751C45.3844 31.9935 44.9259 32.3655 44.3971 32.3655H42.7372L44.6538 22.9118H46.3045C46.8426 22.9118 47.2461 23.4028 47.1391 23.9303H47.136Z" fill="url(#paint0_linear_739_2479)"/>
      <path d="M48.9579 19.4047H45.36L46.2251 15.1353H47.5151C48.6583 15.1353 49.5876 14.2082 49.5876 13.0676C49.5876 11.9271 48.6583 11 47.5151 11H16.2005C15.0541 11 14.1279 11.9271 14.1279 13.0676C14.1279 14.2082 15.0572 15.1353 16.2005 15.1353H17.4905L18.3555 19.4047H15.0419C13.7519 19.4047 12.7829 20.5849 13.0396 21.8475L13.1008 22.1494L15.2009 32.518L15.4271 33.6281C15.6196 34.5796 16.4572 35.2627 17.4293 35.2627H21.5653L22.2439 38.6203C22.8553 41.6364 25.5117 43.8016 28.593 43.8016H29.1005V50.8157H24.2095C22.7758 50.8157 21.6111 51.9776 21.6111 53.4078C21.6111 54.8381 22.7758 56 24.2095 56H39.4938C40.9275 56 42.0922 54.8381 42.0922 53.4078C42.0922 51.9776 40.9275 50.8157 39.4938 50.8157H34.6028V43.8016H35.1103C38.1947 43.8016 40.848 41.6333 41.4594 38.6203L42.138 35.2627H46.5613C47.5334 35.2627 48.371 34.5796 48.5636 33.6281L48.7898 32.518L50.8899 22.1494L50.951 21.8475C51.2078 20.5849 50.2387 19.4047 48.9487 19.4047H48.9579ZM19.3001 32.3655C18.7713 32.3655 18.3128 31.9935 18.2088 31.4751L16.5612 23.9303C16.4542 23.4028 16.8577 22.9118 17.3957 22.9118H19.0647L20.9814 32.3655H19.3001ZM47.136 23.9303L45.4884 31.4751C45.3844 31.9935 44.9259 32.3655 44.3971 32.3655H42.7372L44.6538 22.9118H46.3045C46.8426 22.9118 47.2461 23.4028 47.1391 23.9303H47.136Z" fill="white" fill-opacity="0.1"/>
      <path d="M48.9579 19.4047H45.36L46.2251 15.1353H47.5151C48.6583 15.1353 49.5876 14.2082 49.5876 13.0676C49.5876 11.9271 48.6583 11 47.5151 11H16.2005C15.0541 11 14.1279 11.9271 14.1279 13.0676C14.1279 14.2082 15.0572 15.1353 16.2005 15.1353H17.4905L18.3555 19.4047H15.0419C13.7519 19.4047 12.7829 20.5849 13.0396 21.8475L13.1008 22.1494L15.2009 32.518L15.4271 33.6281C15.6196 34.5796 16.4572 35.2627 17.4293 35.2627H21.5653L22.2439 38.6203C22.8553 41.6364 25.5117 43.8016 28.593 43.8016H29.1005V50.8157H24.2095C22.7758 50.8157 21.6111 51.9776 21.6111 53.4078C21.6111 54.8381 22.7758 56 24.2095 56H39.4938C40.9275 56 42.0922 54.8381 42.0922 53.4078C42.0922 51.9776 40.9275 50.8157 39.4938 50.8157H34.6028V43.8016H35.1103C38.1947 43.8016 40.848 41.6333 41.4594 38.6203L42.138 35.2627H46.5613C47.5334 35.2627 48.371 34.5796 48.5636 33.6281L48.7898 32.518L50.8899 22.1494L50.951 21.8475C51.2078 20.5849 50.2387 19.4047 48.9487 19.4047H48.9579ZM19.3001 32.3655C18.7713 32.3655 18.3128 31.9935 18.2088 31.4751L16.5612 23.9303C16.4542 23.4028 16.8577 22.9118 17.3957 22.9118H19.0647L20.9814 32.3655H19.3001ZM47.136 23.9303L45.4884 31.4751C45.3844 31.9935 44.9259 32.3655 44.3971 32.3655H42.7372L44.6538 22.9118H46.3045C46.8426 22.9118 47.2461 23.4028 47.1391 23.9303H47.136Z" fill="url(#paint1_linear_739_2479)"/>
      <path d="M48.9579 19.4047H45.36L46.2251 15.1353H47.5151C48.6583 15.1353 49.5876 14.2082 49.5876 13.0676C49.5876 11.9271 48.6583 11 47.5151 11H16.2005C15.0541 11 14.1279 11.9271 14.1279 13.0676C14.1279 14.2082 15.0572 15.1353 16.2005 15.1353H17.4905L18.3555 19.4047H15.0419C13.7519 19.4047 12.7829 20.5849 13.0396 21.8475L13.1008 22.1494L15.2009 32.518L15.4271 33.6281C15.6196 34.5796 16.4572 35.2627 17.4293 35.2627H21.5653L22.2439 38.6203C22.8553 41.6364 25.5117 43.8016 28.593 43.8016H29.1005V50.8157H24.2095C22.7758 50.8157 21.6111 51.9776 21.6111 53.4078C21.6111 54.8381 22.7758 56 24.2095 56H39.4938C40.9275 56 42.0922 54.8381 42.0922 53.4078C42.0922 51.9776 40.9275 50.8157 39.4938 50.8157H34.6028V43.8016H35.1103C38.1947 43.8016 40.848 41.6333 41.4594 38.6203L42.138 35.2627H46.5613C47.5334 35.2627 48.371 34.5796 48.5636 33.6281L48.7898 32.518L50.8899 22.1494L50.951 21.8475C51.2078 20.5849 50.2387 19.4047 48.9487 19.4047H48.9579ZM19.3001 32.3655C18.7713 32.3655 18.3128 31.9935 18.2088 31.4751L16.5612 23.9303C16.4542 23.4028 16.8577 22.9118 17.3957 22.9118H19.0647L20.9814 32.3655H19.3001ZM47.136 23.9303L45.4884 31.4751C45.3844 31.9935 44.9259 32.3655 44.3971 32.3655H42.7372L44.6538 22.9118H46.3045C46.8426 22.9118 47.2461 23.4028 47.1391 23.9303H47.136Z" fill="white" fill-opacity="0.1"/>
      <path d="M34.609 43.8015H29.1067V50.8156H34.609V43.8015Z" fill="url(#paint2_linear_739_2479)"/>
      <path d="M34.609 43.8015H29.1067V50.8156H34.609V43.8015Z" fill="white" fill-opacity="0.1"/>
      <path d="M39.5001 50.8157H24.2157C22.7807 50.8157 21.6173 51.9762 21.6173 53.4078C21.6173 54.8395 22.7807 56 24.2157 56H39.5001C40.9351 56 42.0984 54.8395 42.0984 53.4078C42.0984 51.9762 40.9351 50.8157 39.5001 50.8157Z" fill="url(#paint3_linear_739_2479)"/>
      <path d="M39.5001 50.8157H24.2157C22.7807 50.8157 21.6173 51.9762 21.6173 53.4078C21.6173 54.8395 22.7807 56 24.2157 56H39.5001C40.9351 56 42.0984 54.8395 42.0984 53.4078C42.0984 51.9762 40.9351 50.8157 39.5001 50.8157Z" fill="white" fill-opacity="0.1"/>
      <path d="M47.5152 11H16.2006C15.0559 11 14.128 11.9257 14.128 13.0676C14.128 14.2096 15.0559 15.1353 16.2006 15.1353H47.5152C48.6598 15.1353 49.5877 14.2096 49.5877 13.0676C49.5877 11.9257 48.6598 11 47.5152 11Z" fill="url(#paint4_linear_739_2479)"/>
      <path d="M47.5152 11H16.2006C15.0559 11 14.128 11.9257 14.128 13.0676C14.128 14.2096 15.0559 15.1353 16.2006 15.1353H47.5152C48.6598 15.1353 49.5877 14.2096 49.5877 13.0676C49.5877 11.9257 48.6598 11 47.5152 11Z" fill="white" fill-opacity="0.1"/>
      <path d="M35.1165 43.8016H28.5992C25.5148 43.8016 22.8615 41.6333 22.2501 38.6203L17.4905 15.1353H46.2252L41.4656 38.6203C40.8542 41.6363 38.1978 43.8016 35.1165 43.8016V43.8016Z" fill="url(#paint5_linear_739_2479)"/>
      <path d="M35.1165 43.8016H28.5992C25.5148 43.8016 22.8615 41.6333 22.2501 38.6203L17.4905 15.1353H46.2252L41.4656 38.6203C40.8542 41.6363 38.1978 43.8016 35.1165 43.8016V43.8016Z" fill="white" fill-opacity="0.1"/>
      <path d="M19.3002 32.3656C18.7714 32.3656 18.3128 31.9936 18.2089 31.4751L16.5613 23.9304C16.4543 23.4028 16.8578 22.9118 17.3958 22.9118H19.0648L18.3556 19.4048H15.042C13.752 19.4048 12.783 20.585 13.0397 21.8475L13.1009 22.1494L15.2009 32.5181L15.4272 33.6282C15.6197 34.5796 16.4573 35.2627 17.4294 35.2627H21.5654L20.9784 32.3656H19.2972H19.3002Z" fill="url(#paint6_linear_739_2479)"/>
      <path d="M19.3002 32.3656C18.7714 32.3656 18.3128 31.9936 18.2089 31.4751L16.5613 23.9304C16.4543 23.4028 16.8578 22.9118 17.3958 22.9118H19.0648L18.3556 19.4048H15.042C13.752 19.4048 12.783 20.585 13.0397 21.8475L13.1009 22.1494L15.2009 32.5181L15.4272 33.6282C15.6197 34.5796 16.4573 35.2627 17.4294 35.2627H21.5654L20.9784 32.3656H19.2972H19.3002Z" fill="white" fill-opacity="0.1"/>
      <path d="M48.958 19.4048H45.3601L44.6509 22.9118H46.3016C46.8396 22.9118 47.2431 23.4028 47.1361 23.9304L45.4885 31.4751C45.3845 31.9936 44.926 32.3656 44.3972 32.3656H42.7373L42.1504 35.2627H46.5737C47.5457 35.2627 48.3833 34.5796 48.5759 33.6282L48.8021 32.5181L50.9022 22.1494L50.9633 21.8475C51.2201 20.585 50.2511 19.4048 48.9611 19.4048H48.958Z" fill="url(#paint7_linear_739_2479)"/>
      <path d="M48.958 19.4048H45.3601L44.6509 22.9118H46.3016C46.8396 22.9118 47.2431 23.4028 47.1361 23.9304L45.4885 31.4751C45.3845 31.9936 44.926 32.3656 44.3972 32.3656H42.7373L42.1504 35.2627H46.5737C47.5457 35.2627 48.3833 34.5796 48.5759 33.6282L48.8021 32.5181L50.9022 22.1494L50.9633 21.8475C51.2201 20.585 50.2511 19.4048 48.9611 19.4048H48.958Z" fill="white" fill-opacity="0.1"/>
      <g style="mix-blend-mode:hard-light" opacity="0.3" clip-path="url(#clip0_739_2479)">
      <path d="M48.9579 19.4047H45.36L46.2251 15.1353H47.5151C48.6583 15.1353 49.5876 14.2082 49.5876 13.0676C49.5876 11.9271 48.6583 11 47.5151 11H16.2005C15.0541 11 14.1279 11.9271 14.1279 13.0676C14.1279 14.2082 15.0572 15.1353 16.2005 15.1353H17.4905L18.3556 19.4047H15.0419C13.7519 19.4047 12.7829 20.5849 13.0396 21.8475L13.1008 22.1494L15.2009 32.518L15.4271 33.6281C15.6197 34.5796 16.4572 35.2627 17.4293 35.2627H21.5653L22.2439 38.6203C22.8553 41.6364 25.5117 43.8016 28.593 43.8016H29.1005V50.8157H24.2095C22.7758 50.8157 21.6111 51.9776 21.6111 53.4078C21.6111 54.8381 22.7758 56 24.2095 56H39.4938C40.9275 56 42.0922 54.8381 42.0922 53.4078C42.0922 51.9776 40.9275 50.8157 39.4938 50.8157H34.6028V43.8016H35.1103C38.1947 43.8016 40.848 41.6333 41.4594 38.6203L42.138 35.2627H46.5613C47.5334 35.2627 48.371 34.5796 48.5636 33.6281L48.7898 32.518L50.8899 22.1494L50.951 21.8475C51.2078 20.5849 50.2387 19.4047 48.9487 19.4047H48.9579ZM19.3001 32.3655C18.7713 32.3655 18.3128 31.9935 18.2088 31.4751L16.5612 23.9303C16.4542 23.4028 16.8577 22.9118 17.3957 22.9118H19.0647L20.9814 32.3655H19.3001ZM47.136 23.9303L45.4884 31.4751C45.3844 31.9935 44.9259 32.3655 44.3971 32.3655H42.7372L44.6538 22.9118H46.3046C46.8426 22.9118 47.2461 23.4028 47.1391 23.9303H47.136Z" fill="black" fill-opacity="0.3"/>
      <path d="M34.609 43.8016H29.1067V50.8157H34.609V43.8016Z" fill="url(#paint8_linear_739_2479)" fill-opacity="0.6"/>
      <path d="M39.5 50.8157H24.2157C22.7806 50.8157 21.6173 51.9762 21.6173 53.4078C21.6173 54.8395 22.7806 56 24.2157 56H39.5C40.9351 56 42.0984 54.8395 42.0984 53.4078C42.0984 51.9762 40.9351 50.8157 39.5 50.8157Z" fill="url(#paint9_linear_739_2479)" fill-opacity="0.5"/>
      <path d="M47.5152 11H16.2005C15.0559 11 14.128 11.9257 14.128 13.0676C14.128 14.2096 15.0559 15.1353 16.2005 15.1353H47.5152C48.6598 15.1353 49.5877 14.2096 49.5877 13.0676C49.5877 11.9257 48.6598 11 47.5152 11Z" fill="url(#paint10_linear_739_2479)" fill-opacity="0.7"/>
      <path d="M35.1165 43.8016H28.5992C25.5148 43.8016 22.8615 41.6333 22.2501 38.6203L17.4905 15.1353H46.2252L41.4656 38.6203C40.8542 41.6364 38.1978 43.8016 35.1165 43.8016V43.8016Z" fill="url(#paint11_linear_739_2479)" fill-opacity="0.5"/>
      <path d="M19.3002 32.3655C18.7714 32.3655 18.3128 31.9935 18.2089 31.4751L16.5613 23.9303C16.4543 23.4028 16.8578 22.9118 17.3958 22.9118H19.0648L18.3556 19.4047H15.042C13.752 19.4047 12.783 20.5849 13.0397 21.8475L13.1009 22.1494L15.2009 32.518L15.4272 33.6281C15.6197 34.5796 16.4573 35.2627 17.4294 35.2627H21.5654L20.9784 32.3655H19.2972H19.3002Z" fill="url(#paint12_linear_739_2479)" fill-opacity="0.3"/>
      <path d="M48.958 19.4047H45.3601L44.6509 22.9118H46.3016C46.8396 22.9118 47.2431 23.4028 47.1361 23.9303L45.4885 31.4751C45.3845 31.9935 44.926 32.3655 44.3972 32.3655H42.7373L42.1504 35.2627H46.5736C47.5457 35.2627 48.3833 34.5796 48.5759 33.6281L48.8021 32.518L50.9022 22.1494L50.9633 21.8475C51.2201 20.5849 50.2511 19.4047 48.9611 19.4047H48.958Z" fill="url(#paint13_linear_739_2479)" fill-opacity="0.3"/>
      </g>
      <g style="mix-blend-mode:hard-light" opacity="0.2" clip-path="url(#clip1_739_2479)">
      <path d="M48.9579 19.4047H45.36L46.2251 15.1353H47.5151C48.6583 15.1353 49.5876 14.2082 49.5876 13.0676C49.5876 11.9271 48.6583 11 47.5151 11H16.2005C15.0541 11 14.1279 11.9271 14.1279 13.0676C14.1279 14.2082 15.0572 15.1353 16.2005 15.1353H17.4905L18.3556 19.4047H15.0419C13.7519 19.4047 12.7829 20.5849 13.0396 21.8475L13.1008 22.1494L15.2009 32.518L15.4271 33.6281C15.6197 34.5796 16.4572 35.2627 17.4293 35.2627H21.5653L22.2439 38.6203C22.8553 41.6364 25.5117 43.8016 28.593 43.8016H29.1005V50.8157H24.2095C22.7758 50.8157 21.6111 51.9776 21.6111 53.4078C21.6111 54.8381 22.7758 56 24.2095 56H39.4938C40.9275 56 42.0922 54.8381 42.0922 53.4078C42.0922 51.9776 40.9275 50.8157 39.4938 50.8157H34.6028V43.8016H35.1103C38.1947 43.8016 40.848 41.6333 41.4594 38.6203L42.138 35.2627H46.5613C47.5334 35.2627 48.371 34.5796 48.5636 33.6281L48.7898 32.518L50.8899 22.1494L50.951 21.8475C51.2078 20.5849 50.2387 19.4047 48.9487 19.4047H48.9579ZM19.3001 32.3655C18.7713 32.3655 18.3128 31.9935 18.2088 31.4751L16.5612 23.9303C16.4542 23.4028 16.8577 22.9118 17.3957 22.9118H19.0647L20.9814 32.3655H19.3001ZM47.136 23.9303L45.4884 31.4751C45.3844 31.9935 44.9259 32.3655 44.3971 32.3655H42.7372L44.6538 22.9118H46.3046C46.8426 22.9118 47.2461 23.4028 47.1391 23.9303H47.136Z" fill="white"/>
      <path d="M34.609 43.8016H29.1067V50.8157H34.609V43.8016Z" fill="white"/>
      <path d="M39.5 50.8157H24.2157C22.7806 50.8157 21.6173 51.9762 21.6173 53.4078C21.6173 54.8395 22.7806 56 24.2157 56H39.5C40.9351 56 42.0984 54.8395 42.0984 53.4078C42.0984 51.9762 40.9351 50.8157 39.5 50.8157Z" fill="white"/>
      <path d="M47.5152 11H16.2005C15.0559 11 14.128 11.9257 14.128 13.0676C14.128 14.2096 15.0559 15.1353 16.2005 15.1353H47.5152C48.6598 15.1353 49.5877 14.2096 49.5877 13.0676C49.5877 11.9257 48.6598 11 47.5152 11Z" fill="white"/>
      <path d="M35.1165 43.8016H28.5992C25.5148 43.8016 22.8615 41.6333 22.2501 38.6203L17.4905 15.1353H46.2252L41.4656 38.6203C40.8542 41.6364 38.1978 43.8016 35.1165 43.8016V43.8016Z" fill="white"/>
      <path d="M19.3002 32.3655C18.7714 32.3655 18.3128 31.9935 18.2089 31.4751L16.5613 23.9303C16.4543 23.4028 16.8578 22.9118 17.3958 22.9118H19.0648L18.3556 19.4047H15.042C13.752 19.4047 12.783 20.5849 13.0397 21.8475L13.1009 22.1494L15.2009 32.518L15.4272 33.6281C15.6197 34.5796 16.4573 35.2627 17.4294 35.2627H21.5654L20.9784 32.3655H19.2972H19.3002Z" fill="white"/>
      <path d="M48.958 19.4047H45.3601L44.6509 22.9118H46.3016C46.8396 22.9118 47.2431 23.4028 47.1361 23.9303L45.4885 31.4751C45.3845 31.9935 44.926 32.3655 44.3972 32.3655H42.7373L42.1504 35.2627H46.5736C47.5457 35.2627 48.3833 34.5796 48.5759 33.6281L48.8021 32.518L50.9022 22.1494L50.9633 21.8475C51.2201 20.5849 50.2511 19.4047 48.9611 19.4047H48.958Z" fill="white"/>
      </g>
      <path d="M15.6518 46.6946C15.7713 46.4468 15.6305 46.2773 15.5615 46.1028C15.1791 45.1413 15.3403 44.1985 15.6852 43.2656C15.8515 42.8151 16.1138 42.8172 16.3612 43.1863C17.1287 44.3299 17.6472 45.5203 16.9092 46.9028C16.7634 47.1759 16.7837 47.3989 17.0889 47.5413C17.1247 47.5577 17.1558 47.5892 17.1933 47.5978C18.5054 47.9006 19.5846 48.8415 20.975 48.9338C21.1701 48.9468 21.3664 49.0056 21.5504 49.0744C21.668 49.1184 21.8476 49.1417 21.8383 49.3236C21.8317 49.4544 21.7066 49.5199 21.6011 49.5731C20.5653 50.0977 19.6623 50.7603 19.1349 51.8397C19.0013 52.1129 18.7438 52.0437 18.5645 51.9274C17.4302 51.1926 16.1616 50.9357 14.8337 50.8631C14.6803 50.8548 14.4839 50.8487 14.4274 50.6748C14.3671 50.4882 14.5504 50.3973 14.6699 50.3021C15.6597 49.5152 16.7681 48.9994 18.0237 48.817C18.2123 48.7896 18.4232 48.8424 18.6307 48.6417C18.3033 48.5082 18.008 48.3671 17.6999 48.2647C16.5616 47.8875 15.5563 47.3134 14.6366 46.5287C13.6204 45.6621 12.8727 44.6295 12.2475 43.4699C11.4252 41.9452 10.9959 40.3108 10.8745 38.5941C10.8125 37.7164 10.3849 36.9138 10.424 36.0264C10.475 34.8748 10.9307 33.9187 11.8797 33.2203C12.1009 33.0575 12.3828 33.0569 12.3172 33.3748C12.2257 33.8151 12.3782 34.1958 12.4318 34.5964C12.583 35.7203 12.3034 36.7341 11.6374 37.6334C11.3473 38.0251 11.2822 38.4222 11.3461 38.8609C11.4958 39.8895 11.6064 40.93 12.1257 41.9947C12.3181 41.3084 12.4714 40.7398 12.7591 40.2152C13.0064 39.7645 13.3639 39.427 13.7361 39.0935C13.8413 38.9993 13.9418 38.8882 14.1 38.9712C14.2183 39.0332 14.2457 39.1501 14.2502 39.2735C14.2996 40.5925 14.0437 41.8142 12.989 42.7292C12.6417 43.0308 12.6182 43.3034 12.8304 43.6575C12.9827 43.912 13.1233 44.1738 13.2779 44.4266C13.3611 44.5624 13.4687 44.7219 13.6499 44.6547C13.846 44.5819 13.7786 44.3901 13.7556 44.2374C13.6117 43.2755 13.8144 42.3837 14.3141 41.549C14.4394 41.3398 14.5721 41.1044 14.8433 41.1265C15.1147 41.1491 15.1247 41.4274 15.1797 41.6289C15.521 42.8815 15.4277 44.072 14.5691 45.122C14.3066 45.4433 14.3388 45.7073 14.6194 45.9471C14.9388 46.2197 15.2124 46.568 15.6514 46.6949L15.6518 46.6946Z" fill="url(#paint14_linear_739_2479)"/>
      <path d="M15.6518 46.6946C15.7713 46.4468 15.6305 46.2773 15.5615 46.1028C15.1791 45.1413 15.3403 44.1985 15.6852 43.2656C15.8515 42.8151 16.1138 42.8172 16.3612 43.1863C17.1287 44.3299 17.6472 45.5203 16.9092 46.9028C16.7634 47.1759 16.7837 47.3989 17.0889 47.5413C17.1247 47.5577 17.1558 47.5892 17.1933 47.5978C18.5054 47.9006 19.5846 48.8415 20.975 48.9338C21.1701 48.9468 21.3664 49.0056 21.5504 49.0744C21.668 49.1184 21.8476 49.1417 21.8383 49.3236C21.8317 49.4544 21.7066 49.5199 21.6011 49.5731C20.5653 50.0977 19.6623 50.7603 19.1349 51.8397C19.0013 52.1129 18.7438 52.0437 18.5645 51.9274C17.4302 51.1926 16.1616 50.9357 14.8337 50.8631C14.6803 50.8548 14.4839 50.8487 14.4274 50.6748C14.3671 50.4882 14.5504 50.3973 14.6699 50.3021C15.6597 49.5152 16.7681 48.9994 18.0237 48.817C18.2123 48.7896 18.4232 48.8424 18.6307 48.6417C18.3033 48.5082 18.008 48.3671 17.6999 48.2647C16.5616 47.8875 15.5563 47.3134 14.6366 46.5287C13.6204 45.6621 12.8727 44.6295 12.2475 43.4699C11.4252 41.9452 10.9959 40.3108 10.8745 38.5941C10.8125 37.7164 10.3849 36.9138 10.424 36.0264C10.475 34.8748 10.9307 33.9187 11.8797 33.2203C12.1009 33.0575 12.3828 33.0569 12.3172 33.3748C12.2257 33.8151 12.3782 34.1958 12.4318 34.5964C12.583 35.7203 12.3034 36.7341 11.6374 37.6334C11.3473 38.0251 11.2822 38.4222 11.3461 38.8609C11.4958 39.8895 11.6064 40.93 12.1257 41.9947C12.3181 41.3084 12.4714 40.7398 12.7591 40.2152C13.0064 39.7645 13.3639 39.427 13.7361 39.0935C13.8413 38.9993 13.9418 38.8882 14.1 38.9712C14.2183 39.0332 14.2457 39.1501 14.2502 39.2735C14.2996 40.5925 14.0437 41.8142 12.989 42.7292C12.6417 43.0308 12.6182 43.3034 12.8304 43.6575C12.9827 43.912 13.1233 44.1738 13.2779 44.4266C13.3611 44.5624 13.4687 44.7219 13.6499 44.6547C13.846 44.5819 13.7786 44.3901 13.7556 44.2374C13.6117 43.2755 13.8144 42.3837 14.3141 41.549C14.4394 41.3398 14.5721 41.1044 14.8433 41.1265C15.1147 41.1491 15.1247 41.4274 15.1797 41.6289C15.521 42.8815 15.4277 44.072 14.5691 45.122C14.3066 45.4433 14.3388 45.7073 14.6194 45.9471C14.9388 46.2197 15.2124 46.568 15.6514 46.6949L15.6518 46.6946Z" fill="white" fill-opacity="0.1"/>
      <path d="M19.2839 44.5239C20.0869 45.4688 20.3748 46.5594 20.1929 47.7798C20.0922 48.4565 19.9058 48.5224 19.3533 48.1202C17.9866 47.1268 17.3807 45.8146 17.6806 44.114C17.7752 43.5773 18.143 43.4017 18.5629 43.7452C18.8344 43.9671 19.0458 44.2618 19.2839 44.5239V44.5239Z" fill="url(#paint15_linear_739_2479)"/>
      <path d="M19.2839 44.5239C20.0869 45.4688 20.3748 46.5594 20.1929 47.7798C20.0922 48.4565 19.9058 48.5224 19.3533 48.1202C17.9866 47.1268 17.3807 45.8146 17.6806 44.114C17.7752 43.5773 18.143 43.4017 18.5629 43.7452C18.8344 43.9671 19.0458 44.2618 19.2839 44.5239V44.5239Z" fill="white" fill-opacity="0.1"/>
      <path d="M15.9389 48.1857C16.4216 48.7821 16.3343 49.0534 15.5667 49.2368C14.2704 49.5466 13.2929 48.9522 12.4387 48.0932C12.1505 47.803 11.919 47.4483 11.7012 47.0987C11.5534 46.861 11.5884 46.6405 11.9423 46.5918C13.1668 46.4246 15.1527 47.2141 15.9383 48.185L15.9389 48.1857Z" fill="url(#paint16_linear_739_2479)"/>
      <path d="M15.9389 48.1857C16.4216 48.7821 16.3343 49.0534 15.5667 49.2368C14.2704 49.5466 13.2929 48.9522 12.4387 48.0932C12.1505 47.803 11.919 47.4483 11.7012 47.0987C11.5534 46.861 11.5884 46.6405 11.9423 46.5918C13.1668 46.4246 15.1527 47.2141 15.9383 48.185L15.9389 48.1857Z" fill="white" fill-opacity="0.1"/>
      <path d="M12.8286 45.0366C12.9744 45.341 13.4661 45.5917 13.2735 45.9214C13.085 46.2438 12.5837 46.0881 12.2167 46.0919C10.7244 46.1075 9.62853 44.8174 9.26787 43.6636C9.12358 43.2024 9.37674 43.1601 9.74487 43.2152C11.0213 43.4068 12.0406 44.0191 12.8282 45.0369L12.8286 45.0366Z" fill="url(#paint17_linear_739_2479)"/>
      <path d="M12.8286 45.0366C12.9744 45.341 13.4661 45.5917 13.2735 45.9214C13.085 46.2438 12.5837 46.0881 12.2167 46.0919C10.7244 46.1075 9.62853 44.8174 9.26787 43.6636C9.12358 43.2024 9.37674 43.1601 9.74487 43.2152C11.0213 43.4068 12.0406 44.0191 12.8282 45.0369L12.8286 45.0366Z" fill="white" fill-opacity="0.1"/>
      <path d="M10.5471 41.1216C10.9115 41.589 11.2159 41.9498 11.3152 42.4395C11.416 42.9381 11.1395 43.032 10.7772 42.9089C9.56446 42.4966 8.56662 41.8426 8.25574 40.4844C8.14112 39.9827 8.30019 39.8154 8.82178 39.956C9.57115 40.1579 10.2221 40.5117 10.5468 41.1219L10.5471 41.1216Z" fill="url(#paint18_linear_739_2479)"/>
      <path d="M10.5471 41.1216C10.9115 41.589 11.2159 41.9498 11.3152 42.4395C11.416 42.9381 11.1395 43.032 10.7772 42.9089C9.56446 42.4966 8.56662 41.8426 8.25574 40.4844C8.14112 39.9827 8.30019 39.8154 8.82178 39.956C9.57115 40.1579 10.2221 40.5117 10.5468 41.1219L10.5471 41.1216Z" fill="white" fill-opacity="0.1"/>
      <path d="M12.2472 40.273C12.0939 40.3831 11.864 40.551 11.7776 40.2009C11.5266 39.1828 11.9536 37.2668 13.011 36.7608C13.2206 36.6601 13.4396 36.4493 13.672 36.5842C13.9191 36.728 13.8004 37.0165 13.7828 37.2421C13.6555 38.8396 13.0012 39.5663 12.2479 40.2731L12.2472 40.273Z" fill="url(#paint19_linear_739_2479)"/>
      <path d="M12.2472 40.273C12.0939 40.3831 11.864 40.551 11.7776 40.2009C11.5266 39.1828 11.9536 37.2668 13.011 36.7608C13.2206 36.6601 13.4396 36.4493 13.672 36.5842C13.9191 36.728 13.8004 37.0165 13.7828 37.2421C13.6555 38.8396 13.0012 39.5663 12.2479 40.2731L12.2472 40.273Z" fill="white" fill-opacity="0.1"/>
      <path d="M9.67393 36.8922C10.3318 37.6464 10.4893 38.4959 10.5617 39.3721C10.5757 39.5402 10.6078 39.7583 10.3969 39.8371C10.2296 39.8995 10.1069 39.7518 9.98653 39.6544C9.15201 38.9794 8.6387 38.1226 8.55216 37.0383C8.529 36.7516 8.46876 36.3807 8.79897 36.2492C9.09877 36.1301 9.28413 36.4379 9.47023 36.6339C9.56459 36.7335 9.64116 36.85 9.67393 36.8922V36.8922Z" fill="url(#paint20_linear_739_2479)"/>
      <path d="M9.67393 36.8922C10.3318 37.6464 10.4893 38.4959 10.5617 39.3721C10.5757 39.5402 10.6078 39.7583 10.3969 39.8371C10.2296 39.8995 10.1069 39.7518 9.98653 39.6544C9.15201 38.9794 8.6387 38.1226 8.55216 37.0383C8.529 36.7516 8.46876 36.3807 8.79897 36.2492C9.09877 36.1301 9.28413 36.4379 9.47023 36.6339C9.56459 36.7335 9.64116 36.85 9.67393 36.8922V36.8922Z" fill="white" fill-opacity="0.1"/>
      <path d="M48.3482 46.6946C48.2287 46.4468 48.3695 46.2773 48.4385 46.1028C48.8209 45.1413 48.6597 44.1985 48.3148 43.2656C48.1485 42.8151 47.8862 42.8172 47.6388 43.1863C46.8713 44.3299 46.3528 45.5203 47.0908 46.9028C47.2366 47.1759 47.2163 47.3989 46.9111 47.5413C46.8753 47.5577 46.8442 47.5892 46.8067 47.5978C45.4946 47.9006 44.4154 48.8415 43.025 48.9338C42.8299 48.9468 42.6336 49.0056 42.4496 49.0744C42.332 49.1184 42.1524 49.1417 42.1617 49.3236C42.1683 49.4544 42.2934 49.5199 42.3989 49.5731C43.4347 50.0977 44.3377 50.7603 44.8651 51.8397C44.9987 52.1129 45.2562 52.0437 45.4355 51.9274C46.5698 51.1926 47.8384 50.9357 49.1663 50.8631C49.3197 50.8548 49.5161 50.8487 49.5726 50.6748C49.6329 50.4882 49.4496 50.3973 49.3301 50.3021C48.3403 49.5152 47.2319 48.9994 45.9763 48.817C45.7877 48.7896 45.5768 48.8424 45.3693 48.6417C45.6967 48.5082 45.992 48.3671 46.3001 48.2647C47.4384 47.8875 48.4437 47.3134 49.3634 46.5287C50.3796 45.6621 51.1273 44.6295 51.7525 43.4699C52.5748 41.9452 53.0041 40.3108 53.1255 38.5941C53.1875 37.7164 53.6151 36.9138 53.576 36.0264C53.525 34.8748 53.0693 33.9187 52.1203 33.2203C51.8991 33.0575 51.6172 33.0569 51.6828 33.3748C51.7743 33.8151 51.6218 34.1958 51.5682 34.5964C51.417 35.7203 51.6966 36.7341 52.3626 37.6334C52.6527 38.0251 52.7178 38.4222 52.6539 38.8609C52.5042 39.8895 52.3936 40.93 51.8743 41.9947C51.6819 41.3084 51.5286 40.7398 51.2409 40.2152C50.9936 39.7645 50.6361 39.427 50.2639 39.0935C50.1587 38.9993 50.0582 38.8882 49.9 38.9712C49.7817 39.0332 49.7543 39.1501 49.7498 39.2735C49.7004 40.5925 49.9563 41.8142 51.011 42.7292C51.3583 43.0308 51.3818 43.3034 51.1696 43.6575C51.0173 43.912 50.8767 44.1738 50.7221 44.4266C50.6389 44.5624 50.5313 44.7219 50.3501 44.6547C50.154 44.5819 50.2214 44.3901 50.2444 44.2374C50.3883 43.2755 50.1856 42.3837 49.6859 41.549C49.5606 41.3398 49.4279 41.1044 49.1567 41.1265C48.8853 41.1491 48.8753 41.4274 48.8203 41.6289C48.479 42.8815 48.5723 44.072 49.4309 45.122C49.6934 45.4433 49.6612 45.7073 49.3806 45.9471C49.0612 46.2197 48.7876 46.568 48.3486 46.6949L48.3482 46.6946Z" fill="url(#paint21_linear_739_2479)"/>
      <path d="M48.3482 46.6946C48.2287 46.4468 48.3695 46.2773 48.4385 46.1028C48.8209 45.1413 48.6597 44.1985 48.3148 43.2656C48.1485 42.8151 47.8862 42.8172 47.6388 43.1863C46.8713 44.3299 46.3528 45.5203 47.0908 46.9028C47.2366 47.1759 47.2163 47.3989 46.9111 47.5413C46.8753 47.5577 46.8442 47.5892 46.8067 47.5978C45.4946 47.9006 44.4154 48.8415 43.025 48.9338C42.8299 48.9468 42.6336 49.0056 42.4496 49.0744C42.332 49.1184 42.1524 49.1417 42.1617 49.3236C42.1683 49.4544 42.2934 49.5199 42.3989 49.5731C43.4347 50.0977 44.3377 50.7603 44.8651 51.8397C44.9987 52.1129 45.2562 52.0437 45.4355 51.9274C46.5698 51.1926 47.8384 50.9357 49.1663 50.8631C49.3197 50.8548 49.5161 50.8487 49.5726 50.6748C49.6329 50.4882 49.4496 50.3973 49.3301 50.3021C48.3403 49.5152 47.2319 48.9994 45.9763 48.817C45.7877 48.7896 45.5768 48.8424 45.3693 48.6417C45.6967 48.5082 45.992 48.3671 46.3001 48.2647C47.4384 47.8875 48.4437 47.3134 49.3634 46.5287C50.3796 45.6621 51.1273 44.6295 51.7525 43.4699C52.5748 41.9452 53.0041 40.3108 53.1255 38.5941C53.1875 37.7164 53.6151 36.9138 53.576 36.0264C53.525 34.8748 53.0693 33.9187 52.1203 33.2203C51.8991 33.0575 51.6172 33.0569 51.6828 33.3748C51.7743 33.8151 51.6218 34.1958 51.5682 34.5964C51.417 35.7203 51.6966 36.7341 52.3626 37.6334C52.6527 38.0251 52.7178 38.4222 52.6539 38.8609C52.5042 39.8895 52.3936 40.93 51.8743 41.9947C51.6819 41.3084 51.5286 40.7398 51.2409 40.2152C50.9936 39.7645 50.6361 39.427 50.2639 39.0935C50.1587 38.9993 50.0582 38.8882 49.9 38.9712C49.7817 39.0332 49.7543 39.1501 49.7498 39.2735C49.7004 40.5925 49.9563 41.8142 51.011 42.7292C51.3583 43.0308 51.3818 43.3034 51.1696 43.6575C51.0173 43.912 50.8767 44.1738 50.7221 44.4266C50.6389 44.5624 50.5313 44.7219 50.3501 44.6547C50.154 44.5819 50.2214 44.3901 50.2444 44.2374C50.3883 43.2755 50.1856 42.3837 49.6859 41.549C49.5606 41.3398 49.4279 41.1044 49.1567 41.1265C48.8853 41.1491 48.8753 41.4274 48.8203 41.6289C48.479 42.8815 48.5723 44.072 49.4309 45.122C49.6934 45.4433 49.6612 45.7073 49.3806 45.9471C49.0612 46.2197 48.7876 46.568 48.3486 46.6949L48.3482 46.6946Z" fill="white" fill-opacity="0.1"/>
      <path d="M44.7161 44.5239C43.9131 45.4688 43.6252 46.5594 43.8071 47.7798C43.9078 48.4565 44.0942 48.5224 44.6467 48.1202C46.0134 47.1268 46.6193 45.8146 46.3194 44.114C46.2248 43.5773 45.857 43.4017 45.4371 43.7452C45.1656 43.9671 44.9542 44.2618 44.7161 44.5239V44.5239Z" fill="url(#paint22_linear_739_2479)"/>
      <path d="M44.7161 44.5239C43.9131 45.4688 43.6252 46.5594 43.8071 47.7798C43.9078 48.4565 44.0942 48.5224 44.6467 48.1202C46.0134 47.1268 46.6193 45.8146 46.3194 44.114C46.2248 43.5773 45.857 43.4017 45.4371 43.7452C45.1656 43.9671 44.9542 44.2618 44.7161 44.5239V44.5239Z" fill="white" fill-opacity="0.1"/>
      <path d="M48.0611 48.1857C47.5784 48.7821 47.6657 49.0534 48.4332 49.2368C49.7295 49.5466 50.7071 48.9522 51.5612 48.0932C51.8495 47.803 52.0809 47.4483 52.2987 47.0987C52.4465 46.861 52.4116 46.6405 52.0577 46.5918C50.8332 46.4246 48.8473 47.2141 48.0616 48.185L48.0611 48.1857Z" fill="url(#paint23_linear_739_2479)"/>
      <path d="M48.0611 48.1857C47.5784 48.7821 47.6657 49.0534 48.4332 49.2368C49.7295 49.5466 50.7071 48.9522 51.5612 48.0932C51.8495 47.803 52.0809 47.4483 52.2987 47.0987C52.4465 46.861 52.4116 46.6405 52.0577 46.5918C50.8332 46.4246 48.8473 47.2141 48.0616 48.185L48.0611 48.1857Z" fill="white" fill-opacity="0.1"/>
      <path d="M51.1714 45.0366C51.0255 45.341 50.5339 45.5917 50.7264 45.9214C50.9149 46.2438 51.4163 46.0881 51.7833 46.0919C53.2755 46.1075 54.3714 44.8174 54.7321 43.6636C54.8764 43.2024 54.6232 43.1601 54.2551 43.2152C52.9786 43.4068 51.9594 44.0191 51.1718 45.0369L51.1714 45.0366Z" fill="url(#paint24_linear_739_2479)"/>
      <path d="M51.1714 45.0366C51.0255 45.341 50.5339 45.5917 50.7264 45.9214C50.9149 46.2438 51.4163 46.0881 51.7833 46.0919C53.2755 46.1075 54.3714 44.8174 54.7321 43.6636C54.8764 43.2024 54.6232 43.1601 54.2551 43.2152C52.9786 43.4068 51.9594 44.0191 51.1718 45.0369L51.1714 45.0366Z" fill="white" fill-opacity="0.1"/>
      <path d="M53.4529 41.1216C53.0885 41.589 52.7841 41.9498 52.6848 42.4395C52.584 42.9381 52.8605 43.032 53.2228 42.9089C54.4356 42.4966 55.4334 41.8426 55.7443 40.4844C55.8589 39.9827 55.6998 39.8154 55.1782 39.956C54.4289 40.1579 53.778 40.5117 53.4533 41.1219L53.4529 41.1216Z" fill="url(#paint25_linear_739_2479)"/>
      <path d="M53.4529 41.1216C53.0885 41.589 52.7841 41.9498 52.6848 42.4395C52.584 42.9381 52.8605 43.032 53.2228 42.9089C54.4356 42.4966 55.4334 41.8426 55.7443 40.4844C55.8589 39.9827 55.6998 39.8154 55.1782 39.956C54.4289 40.1579 53.778 40.5117 53.4533 41.1219L53.4529 41.1216Z" fill="white" fill-opacity="0.1"/>
      <path d="M51.7528 40.273C51.9061 40.3831 52.136 40.551 52.2223 40.2009C52.4734 39.1828 52.0463 37.2668 50.989 36.7608C50.7793 36.6601 50.5604 36.4493 50.328 36.5842C50.0809 36.728 50.1996 37.0165 50.2172 37.2421C50.3444 38.8396 50.9988 39.5663 51.7521 40.2731L51.7528 40.273Z" fill="url(#paint26_linear_739_2479)"/>
      <path d="M51.7528 40.273C51.9061 40.3831 52.136 40.551 52.2223 40.2009C52.4734 39.1828 52.0463 37.2668 50.989 36.7608C50.7793 36.6601 50.5604 36.4493 50.328 36.5842C50.0809 36.728 50.1996 37.0165 50.2172 37.2421C50.3444 38.8396 50.9988 39.5663 51.7521 40.2731L51.7528 40.273Z" fill="white" fill-opacity="0.1"/>
      <path d="M54.3261 36.8922C53.6683 37.6464 53.5107 38.4959 53.4383 39.3721C53.4244 39.5402 53.3922 39.7583 53.6031 39.8371C53.7705 39.8995 53.8931 39.7518 54.0135 39.6544C54.848 38.9794 55.3613 38.1226 55.4479 37.0383C55.471 36.7516 55.5313 36.3807 55.2011 36.2492C54.9013 36.1301 54.7159 36.4379 54.5298 36.6339C54.4354 36.7335 54.3589 36.85 54.3261 36.8922V36.8922Z" fill="url(#paint27_linear_739_2479)"/>
      <path d="M54.3261 36.8922C53.6683 37.6464 53.5107 38.4959 53.4383 39.3721C53.4244 39.5402 53.3922 39.7583 53.6031 39.8371C53.7705 39.8995 53.8931 39.7518 54.0135 39.6544C54.848 38.9794 55.3613 38.1226 55.4479 37.0383C55.471 36.7516 55.5313 36.3807 55.2011 36.2492C54.9013 36.1301 54.7159 36.4379 54.5298 36.6339C54.4354 36.7335 54.3589 36.85 54.3261 36.8922V36.8922Z" fill="white" fill-opacity="0.1"/>
      <defs>
      <linearGradient id="paint0_linear_739_2479" x1="12.9982" y1="11" x2="51.7302" y2="11.6442" gradientUnits="userSpaceOnUse">
      <stop stop-color="#FFE713"/>
      <stop offset="0.505208" stop-color="#F29F23"/>
      <stop offset="1" stop-color="#FF7A00"/>
      </linearGradient>
      <linearGradient id="paint1_linear_739_2479" x1="12.9982" y1="11" x2="51.7302" y2="11.6442" gradientUnits="userSpaceOnUse">
      <stop stop-color="#FFE713"/>
      <stop offset="0.505208" stop-color="#F29F23"/>
      <stop offset="1" stop-color="#FF7A00"/>
      </linearGradient>
      <linearGradient id="paint2_linear_739_2479" x1="29.1067" y1="43.8015" x2="34.7161" y2="43.8882" gradientUnits="userSpaceOnUse">
      <stop stop-color="#FFE713"/>
      <stop offset="0.505208" stop-color="#F29F23"/>
      <stop offset="1" stop-color="#FF7A00"/>
      </linearGradient>
      <linearGradient id="paint3_linear_739_2479" x1="21.6173" y1="50.8157" x2="42.3761" y2="52.4311" gradientUnits="userSpaceOnUse">
      <stop stop-color="#FFE713"/>
      <stop offset="0.505208" stop-color="#F29F23"/>
      <stop offset="1" stop-color="#FF7A00"/>
      </linearGradient>
      <linearGradient id="paint4_linear_739_2479" x1="14.128" y1="11" x2="49.2832" y2="16.9382" gradientUnits="userSpaceOnUse">
      <stop stop-color="#FFE713"/>
      <stop offset="0.505208" stop-color="#F29F23"/>
      <stop offset="1" stop-color="#FF7A00"/>
      </linearGradient>
      <linearGradient id="paint5_linear_739_2479" x1="17.4905" y1="15.1353" x2="46.7798" y2="15.7136" gradientUnits="userSpaceOnUse">
      <stop stop-color="#FFE713"/>
      <stop offset="0.505208" stop-color="#F29F23"/>
      <stop offset="1" stop-color="#FF7A00"/>
      </linearGradient>
      <linearGradient id="paint6_linear_739_2479" x1="12.9983" y1="19.4048" x2="21.7331" y2="19.4977" gradientUnits="userSpaceOnUse">
      <stop stop-color="#FFE713"/>
      <stop offset="0.505208" stop-color="#F29F23"/>
      <stop offset="1" stop-color="#FF7A00"/>
      </linearGradient>
      <linearGradient id="paint7_linear_739_2479" x1="42.1504" y1="19.4048" x2="51.1781" y2="19.5041" gradientUnits="userSpaceOnUse">
      <stop stop-color="#FFE713"/>
      <stop offset="0.505208" stop-color="#F29F23"/>
      <stop offset="1" stop-color="#FF7A00"/>
      </linearGradient>
      <linearGradient id="paint8_linear_739_2479" x1="31.8579" y1="43.8016" x2="31.8579" y2="50.8157" gradientUnits="userSpaceOnUse">
      <stop stop-color="white"/>
      <stop offset="1" stop-color="white" stop-opacity="0"/>
      </linearGradient>
      <linearGradient id="paint9_linear_739_2479" x1="31.8579" y1="50.8157" x2="31.8579" y2="56" gradientUnits="userSpaceOnUse">
      <stop stop-color="white"/>
      <stop offset="1" stop-color="white" stop-opacity="0"/>
      </linearGradient>
      <linearGradient id="paint10_linear_739_2479" x1="31.8579" y1="11" x2="31.8579" y2="15.1353" gradientUnits="userSpaceOnUse">
      <stop stop-color="white"/>
      <stop offset="1" stop-color="white" stop-opacity="0"/>
      </linearGradient>
      <linearGradient id="paint11_linear_739_2479" x1="31.8579" y1="15.1353" x2="31.8579" y2="43.8016" gradientUnits="userSpaceOnUse">
      <stop stop-color="white"/>
      <stop offset="1" stop-color="white" stop-opacity="0"/>
      </linearGradient>
      <linearGradient id="paint12_linear_739_2479" x1="20" y1="26.9999" x2="14" y2="27.9999" gradientUnits="userSpaceOnUse">
      <stop stop-color="white"/>
      <stop offset="1" stop-color="white" stop-opacity="0"/>
      </linearGradient>
      <linearGradient id="paint13_linear_739_2479" x1="44" y1="27.4999" x2="49.5" y2="28.4999" gradientUnits="userSpaceOnUse">
      <stop stop-color="white"/>
      <stop offset="1" stop-color="white" stop-opacity="0"/>
      </linearGradient>
      <linearGradient id="paint14_linear_739_2479" x1="5" y1="38.5632" x2="12.3542" y2="32.9588" gradientUnits="userSpaceOnUse">
      <stop stop-color="#FFE713"/>
      <stop offset="0.505208" stop-color="#F29F23"/>
      <stop offset="1" stop-color="#FF7A00"/>
      </linearGradient>
      <linearGradient id="paint15_linear_739_2479" x1="16.4853" y1="44.761" x2="18.3994" y2="43.3026" gradientUnits="userSpaceOnUse">
      <stop stop-color="#FFE713"/>
      <stop offset="0.505208" stop-color="#F29F23"/>
      <stop offset="1" stop-color="#FF7A00"/>
      </linearGradient>
      <linearGradient id="paint16_linear_739_2479" x1="11.4581" y1="46.8706" x2="13.6783" y2="45.1875" gradientUnits="userSpaceOnUse">
      <stop stop-color="#FFE713"/>
      <stop offset="0.505208" stop-color="#F29F23"/>
      <stop offset="1" stop-color="#FF7A00"/>
      </linearGradient>
      <linearGradient id="paint17_linear_739_2479" x1="8.89695" y1="43.5693" x2="10.6941" y2="42.2005" gradientUnits="userSpaceOnUse">
      <stop stop-color="#FFE713"/>
      <stop offset="0.505208" stop-color="#F29F23"/>
      <stop offset="1" stop-color="#FF7A00"/>
      </linearGradient>
      <linearGradient id="paint18_linear_739_2479" x1="7.80016" y1="40.3663" x2="9.20326" y2="39.2949" gradientUnits="userSpaceOnUse">
      <stop stop-color="#FFE713"/>
      <stop offset="0.505208" stop-color="#F29F23"/>
      <stop offset="1" stop-color="#FF7A00"/>
      </linearGradient>
      <linearGradient id="paint19_linear_739_2479" x1="10.5235" y1="38.6526" x2="13.6392" y2="36.3873" gradientUnits="userSpaceOnUse">
      <stop stop-color="#FFE713"/>
      <stop offset="0.505208" stop-color="#F29F23"/>
      <stop offset="1" stop-color="#FF7A00"/>
      </linearGradient>
      <linearGradient id="paint20_linear_739_2479" x1="7.78464" y1="37.0145" x2="9.0587" y2="36.0411" gradientUnits="userSpaceOnUse">
      <stop stop-color="#FFE713"/>
      <stop offset="0.505208" stop-color="#F29F23"/>
      <stop offset="1" stop-color="#FF7A00"/>
      </linearGradient>
      <linearGradient id="paint21_linear_739_2479" x1="59" y1="38.5632" x2="51.6458" y2="32.9588" gradientUnits="userSpaceOnUse">
      <stop stop-color="#FFE713"/>
      <stop offset="0.505208" stop-color="#F29F23"/>
      <stop offset="1" stop-color="#FF7A00"/>
      </linearGradient>
      <linearGradient id="paint22_linear_739_2479" x1="47.5147" y1="44.761" x2="45.6006" y2="43.3026" gradientUnits="userSpaceOnUse">
      <stop stop-color="#FFE713"/>
      <stop offset="0.505208" stop-color="#F29F23"/>
      <stop offset="1" stop-color="#FF7A00"/>
      </linearGradient>
      <linearGradient id="paint23_linear_739_2479" x1="52.5419" y1="46.8706" x2="50.3217" y2="45.1875" gradientUnits="userSpaceOnUse">
      <stop stop-color="#FFE713"/>
      <stop offset="0.505208" stop-color="#F29F23"/>
      <stop offset="1" stop-color="#FF7A00"/>
      </linearGradient>
      <linearGradient id="paint24_linear_739_2479" x1="55.103" y1="43.5693" x2="53.3059" y2="42.2005" gradientUnits="userSpaceOnUse">
      <stop stop-color="#FFE713"/>
      <stop offset="0.505208" stop-color="#F29F23"/>
      <stop offset="1" stop-color="#FF7A00"/>
      </linearGradient>
      <linearGradient id="paint25_linear_739_2479" x1="56.1999" y1="40.3663" x2="54.7968" y2="39.2949" gradientUnits="userSpaceOnUse">
      <stop stop-color="#FFE713"/>
      <stop offset="0.505208" stop-color="#F29F23"/>
      <stop offset="1" stop-color="#FF7A00"/>
      </linearGradient>
      <linearGradient id="paint26_linear_739_2479" x1="53.4765" y1="38.6526" x2="50.3608" y2="36.3873" gradientUnits="userSpaceOnUse">
      <stop stop-color="#FFE713"/>
      <stop offset="0.505208" stop-color="#F29F23"/>
      <stop offset="1" stop-color="#FF7A00"/>
      </linearGradient>
      <linearGradient id="paint27_linear_739_2479" x1="56.2154" y1="37.0145" x2="54.9413" y2="36.0411" gradientUnits="userSpaceOnUse">
      <stop stop-color="#FFE713"/>
      <stop offset="0.505208" stop-color="#F29F23"/>
      <stop offset="1" stop-color="#FF7A00"/>
      </linearGradient>
      <clipPath id="clip0_739_2479">
      <rect width="38" height="45" fill="white" transform="translate(13 11)"/>
      </clipPath>
      <clipPath id="clip1_739_2479">
      <rect width="38" height="45" fill="white" transform="translate(13 11)"/>
      </clipPath>
    </defs>
  </svg>
</g>
<g id ="badgeGradeTextGroupB01" opacity="0">
  <text id="badgeTitle" x="62" y="36" font-family="Inter, Sans-Serif" font-weight="700" font-size="11px" dominant-baseline="middle" text-anchor="middle" letter-spacing="-0.5px" fill="#FFFFFF">B</text>
</g>
<g id="barCurrentB01" mask="url(#barClipPathB01)">
  <rect x="12" y="110" width="100" height="2" rx="1" fill="url(#barColorGradientB01)"/>
  <rect x="12" y="110" width="200" height="2" rx="1" fill="#FFFFFF" opacity="0.1"/>
</g>

      </g>
      <g id="editTitleTextGroup01">
<g id ="badgeTitleTextGroupB01" opacity="0">
<text id="badgeTitleB01" x="62" y="82" font-family="Inter, Sans-Serif" font-weight="700" font-size="11px" dominant-baseline="middle" text-anchor="middle" fill="#F4A93A">undefined</text>
</g>
      </g>
      <g id="editSubtitleTextGroup01">
          <g id="badgeSubtitleGroup01" opacity="0">
              <text id="badgeSubtitle01" x="62" y="93.5" font-family="Inter, Sans-Serif" font-weight="400" font-size="9px" dominant-baseline="middle" text-anchor="middle" fill="white" fill-opacity="0.3">7</text>
          </g>
      </g>
      <defs>
          <animate begin="0.30s" xlink:href="#backgroundInnerLineActiveB01" attributeName="opacity" attributeType="XML" dur="1s" fill="freeze" from="0" to="1"/>
          <animate begin="0.20s" xlink:href="#trophySVGB01" attributeName="opacity" attributeType="XML" dur="0.3s" fill="freeze" from="0" to="1"/>
          <animate begin="0.20s" xlink:href="#badgeGradeTextGroupB01" attributeName="opacity" attributeType="XML" dur="0.3s" fill="freeze" from="0" to="1"/>
          <animate begin="0.40s" xlink:href="#badgeTitleTextGroupB01" attributeName="opacity" attributeType="XML" dur="0.2s" fill="freeze" from="0" to="1"/>
      </defs>
      <defs>
          <animate begin="0.70s" xlink:href="#barClipPathShapeB01" attributeName="width" attributeType="XML" dur="0.4s" fill="freeze" from="0" to="21.468069792419357"/>
      </defs>
  </svg>
</g>
</svg>